<svg id="Layer_1" data-name="Layer 1" xmlns="http://www.w3.org/2000/svg" viewBox="0 0 148.04 146.47"><defs><style>.cls-1,.cls-2,.cls-3,.cls-5,.cls-6,.cls-7{fill:none;}.cls-1,.cls-2,.cls-3,.cls-5,.cls-6,.cls-7,.cls-8{stroke:#333;}.cls-1,.cls-5,.cls-8{stroke-miterlimit:10;}.cls-1{stroke-width:2px;}.cls-2{stroke-width:8px;}.cls-3,.cls-6{stroke-linecap:round;}.cls-3,.cls-7{stroke-linejoin:round;}.cls-3,.cls-6,.cls-7{stroke-width:3px;}.cls-4,.cls-8{fill:#333;}.cls-6{stroke-linejoin:bevel;}.cls-8{stroke-width:2.5px;}</style></defs><line class="cls-1" x1="7.06" y1="67.29" x2="14.04" y2="67.29"/><line class="cls-1" x1="7.06" y1="73.41" x2="14.04" y2="73.41"/><line class="cls-1" x1="7.06" y1="79.55" x2="14.04" y2="79.55"/><g id="Rectangle"><path class="cls-2" d="M139.88,38.28H13.51a6.83,6.83,0,0,0-6.83,6.83h0v62.63a6.82,6.82,0,0,0,6.83,6.82H139.88a6.84,6.84,0,0,0,6.84-6.82V45.11a6.83,6.83,0,0,0-6.83-6.83Z" transform="translate(-2.68 -3.52)"/></g><g id="Path"><line class="cls-3" x1="14.49" y1="45.35" x2="34.99" y2="45.35"/></g><g id="Oval"><circle class="cls-4" cx="16.77" cy="99.99" r="2.28"/><circle class="cls-5" cx="16.77" cy="99.99" r="2.28"/></g><g id="Oval-Copy-2"><circle class="cls-4" cx="24.75" cy="99.99" r="2.28"/><circle class="cls-5" cx="24.75" cy="99.99" r="2.28"/></g><g id="Oval-Copy-3"><circle class="cls-4" cx="32.71" cy="99.99" r="2.28"/><circle class="cls-5" cx="32.71" cy="99.99" r="2.28"/></g><g id="Oval-Copy"><circle class="cls-4" cx="130.22" cy="45.35" r="2.28"/><circle class="cls-5" cx="130.22" cy="45.35" r="2.28"/></g><g id="Path-Copy"><line class="cls-6" x1="112.01" y1="99.99" x2="132.5" y2="99.99"/></g><g id="Rectangle-Copy"><path class="cls-7" d="M134.89,14.18q-2.08-2-2.92-9.16c-.46,4.74-1.4,7.8-2.81,9.16s-4.66,2.28-9.71,2.79q7.59,1.11,9.71,3.11c1.41,1.35,2.34,4.3,2.81,8.83.55-4.56,1.53-7.49,2.92-8.83s4.6-2.38,9.61-3.11C139.49,16.44,136.29,15.5,134.89,14.18Z" transform="translate(-2.68 -3.52)"/></g><g id="Rectangle-2"><path class="cls-7" d="M24.18,133.73c-1.27-1.32-2.16-4.43-2.67-9.16-.4,4.75-1.26,7.8-2.55,9.16s-4.23,2.29-8.84,2.83c4.6.73,7.54,1.77,8.82,3.1s2.15,4.28,2.57,8.83q.75-6.84,2.66-8.83c1.26-1.32,4.14-2.38,8.73-3.1C28.36,136,25.44,135.06,24.18,133.73Z" transform="translate(-2.68 -3.52)"/></g><path class="cls-8" d="M29.13,89.38a1.59,1.59,0,0,1,2-1l.13,0a14.45,14.45,0,0,0,5.46,1.2c5.49,0,7.19-3.5,7.14-6.12-.05-4.42-4-6.31-8.16-6.31H35a1.63,1.63,0,0,1-1.61-1.61h0A1.62,1.62,0,0,1,35,74h.78c3.1,0,7-1.61,7-5.35,0-2.52-1.61-4.75-5.52-4.75a11.25,11.25,0,0,0-4.83,1.19,1.58,1.58,0,0,1-2.12-.76.35.35,0,0,1-.06-.14V64.1a1.59,1.59,0,0,1,.75-2,15.85,15.85,0,0,1,7.08-1.7c6.21,0,9,3.69,9,7.52,0,3.25-1.95,6-5.83,7.43v.06c3.88.78,7,3.69,7,8.11,0,5.08-4,9.5-11.55,9.5a17.05,17.05,0,0,1-6.89-1.43,1.65,1.65,0,0,1-.86-2Z" transform="translate(-2.68 -3.52)"/><path class="cls-8" d="M73.62,76.47c0,10.69-4,16.58-11,16.58-6.21,0-10.36-5.78-10.44-16.22s4.57-16.39,11-16.39C69.82,60.45,73.62,66.36,73.62,76.47ZM56.47,77c0,8.21,2.53,12.87,6.41,12.87,4.37,0,6.46-5.1,6.46-13.17,0-7.77-2-12.86-6.41-12.86-3.74,0-6.46,4.51-6.46,13.11Z" transform="translate(-2.68 -3.52)"/><path class="cls-8" d="M99.54,76.47c0,10.69-4,16.58-11,16.58-6.22,0-10.36-5.78-10.44-16.22s4.57-16.42,11-16.42C95.73,60.45,99.54,66.36,99.54,76.47ZM82.38,77c0,8.21,2.53,12.87,6.41,12.87,4.38,0,6.47-5.1,6.47-13.17,0-7.77-2-12.86-6.41-12.86-3.74,0-6.47,4.51-6.47,13.11Z" transform="translate(-2.68 -3.52)"/><path class="cls-8" d="M125.45,76.47c0,10.75-4,16.66-11,16.66-6.22,0-10.36-5.78-10.43-16.22s4.57-16.42,11-16.42C121.65,60.45,125.45,66.36,125.45,76.47ZM108.29,77c0,8.21,2.53,12.87,6.42,12.87,4.37,0,6.46-5.1,6.46-13.17,0-7.77-2-12.86-6.41-12.86-3.74,0-6.47,4.51-6.47,13.11Z" transform="translate(-2.68 -3.52)"/><line class="cls-1" x1="133.7" y1="67.29" x2="140.68" y2="67.29"/><line class="cls-1" x1="133.7" y1="73.41" x2="140.68" y2="73.41"/><line class="cls-1" x1="133.7" y1="79.55" x2="140.68" y2="79.55"/></svg>