<svg xmlns="http://www.w3.org/2000/svg" xmlns:xlink="http://www.w3.org/1999/xlink" width="128" height="128" viewBox="0 0 128 128">
  <defs>
    <clipPath id="clip-icon-epidemic-prevention">
      <rect width="128" height="128"/>
    </clipPath>
  </defs>
  <g id="icon-epidemic-prevention" clip-path="url(#clip-icon-epidemic-prevention)">
    <g id="Group_773" data-name="Group 773" transform="translate(-235.784 194.888)">
      <g id="Group_772" data-name="Group 772">
        <path id="Path_577" data-name="Path 577" d="M328.8-166.243l2.856-2.424c7.908-6.712,18.57-5.261,23.693,3.224h0c5.123,8.486,2.843,20.92-5.065,27.631l-2.559,2.172" fill="none" stroke="#333" stroke-linecap="round" stroke-linejoin="round" stroke-width="8"/>
        <path id="Path_578" data-name="Path 578" d="M255.752-122.142l-3.474,1.4c-9.623,3.872-13.3,13.983-8.182,22.468h0c5.122,8.485,17.187,12.259,26.81,8.387l3.1-1.249" fill="none" stroke="#333" stroke-linecap="round" stroke-linejoin="round" stroke-width="8"/>
      </g>
      <path id="Path_579" data-name="Path 579" d="M273.116-92.024c8.218,1.268,34.074-4.476,45.9-11.692s25.644-25.271,28.35-33.134l-18.42-30.509c-12.338-1.9-28.611,1.8-43.97,11.073s-26.216,21.947-30.278,33.752Z" fill="none" stroke="#333" stroke-linecap="round" stroke-linejoin="round" stroke-width="8"/>
      <path id="Path_580" data-name="Path 580" d="M260.985-113.74s24.818-38.132,72.3-44.681" fill="none" stroke="#333" stroke-linecap="round" stroke-linejoin="round" stroke-width="4" stroke-dasharray="2 8"/>
      <path id="Path_581" data-name="Path 581" d="M340.893-145.013s-24.818,38.131-72.3,44.68" fill="none" stroke="#333" stroke-linecap="round" stroke-linejoin="round" stroke-width="4" stroke-dasharray="2 8"/>
      <path id="Path_582" data-name="Path 582" d="M338.258-152.787s-32.43,25.523-72.642,44.12" fill="none" stroke="#333" stroke-linecap="round" stroke-linejoin="round" stroke-width="4" stroke-dasharray="2 8"/>
    </g>
  </g>
</svg>
