<svg xmlns="http://www.w3.org/2000/svg" xmlns:xlink="http://www.w3.org/1999/xlink" width="128" height="128" viewBox="0 0 128 128">
  <defs>
    <clipPath id="clip-icon-contact-us">
      <rect width="128" height="128"/>
    </clipPath>
  </defs>
  <g id="icon-contact-us" clip-path="url(#clip-icon-contact-us)">
    <g id="Group_196" data-name="Group 196" transform="translate(-1098.875 -2815.756)">
      <path id="Path_162" data-name="Path 162" d="M1121.761,2892.68v-33.125c0-20.239,18.018-36.8,40.04-36.8h.976c22.022,0,40.04,16.56,40.04,36.8v33.125c0,20.239-18.018,36.8-40.04,36.8h-.976" fill="none" stroke="#333" stroke-linecap="round" stroke-linejoin="round" stroke-width="8"/>
      <path id="Path_163" data-name="Path 163" d="M1126.064,2867.813c-.473-.041-.949-.069-1.433-.069-8.666,0-15.756,6.664-15.756,14.809v10.771c0,8.145,7.09,14.809,15.756,14.809.484,0,.96-.028,1.433-.068Z" fill="#333"/>
      <path id="Path_164" data-name="Path 164" d="M1199.825,2867.813c.473-.041.949-.069,1.433-.069,8.666,0,15.756,6.664,15.756,14.809v10.771c0,8.145-7.09,14.809-15.756,14.809-.484,0-.96-.028-1.433-.068Z" fill="#333"/>
      <rect id="Rectangle_41" data-name="Rectangle 41" width="28.123" height="17.951" rx="8.622" transform="translate(1149.563 2919.203)" fill="#333"/>
    </g>
  </g>
</svg>
