<svg xmlns="http://www.w3.org/2000/svg" xmlns:xlink="http://www.w3.org/1999/xlink" width="128" height="128" viewBox="0 0 128 128">
  <defs>
    <clipPath id="clip-icon-announcement-message">
      <rect width="128" height="128"/>
    </clipPath>
  </defs>
  <g id="icon-announcement-message" clip-path="url(#clip-icon-announcement-message)">
    <g id="Group_647" data-name="Group 647" transform="translate(0.576 -0.334)">
      <path id="Path_442" data-name="Path 442" d="M41.974,69.958H24.357a6.755,6.755,0,0,0,.289,1.235l11.891,35.256a6.866,6.866,0,0,0,8.7,4.312l2.92-.985a6.866,6.866,0,0,0,4.312-8.7Z" fill="none" stroke="#333" stroke-linecap="round" stroke-linejoin="round" stroke-width="8"/>
      <rect id="Rectangle_26" data-name="Rectangle 26" width="16.395" height="72.483" rx="8.197" transform="translate(79.744 18.334)" stroke-width="8" stroke="#333" stroke-linecap="round" stroke-linejoin="round" fill="none"/>
      <line id="Line_242" data-name="Line 242" x1="7.312" y2="3.986" transform="translate(108.723 31.893)" fill="none" stroke="#333" stroke-linecap="round" stroke-linejoin="round" stroke-width="8"/>
      <line id="Line_243" data-name="Line 243" x2="7.312" y2="3.986" transform="translate(108.723 73.044)" fill="none" stroke="#333" stroke-linecap="round" stroke-linejoin="round" stroke-width="8"/>
      <line id="Line_244" data-name="Line 244" x2="11.229" transform="translate(108.145 54.461)" fill="none" stroke="#333" stroke-linecap="round" stroke-linejoin="round" stroke-width="8"/>
      <path id="Path_443" data-name="Path 443" d="M79.593,82.239,79.415,27.81,45.61,40.862H18.257a8.833,8.833,0,0,0-8.833,8.833v11.43a8.833,8.833,0,0,0,8.833,8.833h28.6Z" fill="none" stroke="#333" stroke-linecap="round" stroke-linejoin="round" stroke-width="8"/>
    </g>
  </g>
</svg>
