<svg xmlns="http://www.w3.org/2000/svg" xmlns:xlink="http://www.w3.org/1999/xlink" width="128" height="128" viewBox="0 0 128 128">
  <defs>
    <clipPath id="clip-icon-debit-card-cloud-payment">
      <rect width="128" height="128"/>
    </clipPath>
  </defs>
  <g id="icon-debit-card-cloud-payment" clip-path="url(#clip-icon-debit-card-cloud-payment)">
    <g id="Group_98" data-name="Group 98" transform="translate(8.341 3.084)">
      <path id="Path_126" data-name="Path 126" d="M58.61,46.244c7.788,0,16.276,2.864,22.139,11.018,5.935,8.257,4.032,13.51,4.651,21.161C86.9,97,73.412,108.223,58.64,107.8c-15.662-.449-28.433-11.788-26.76-29.38.723-7.6-1.122-11.8,5.568-21.836C41.632,50.312,50.786,46.244,58.61,46.244Z" fill="none" stroke="#333" stroke-linecap="round" stroke-width="8"/>
      <ellipse id="Ellipse_42" data-name="Ellipse 42" cx="26.76" cy="25.12" rx="26.76" ry="25.12" transform="translate(31.879 57.563)" fill="none" stroke="#333" stroke-linecap="round" stroke-linejoin="round" stroke-width="8"/>
      <g id="_" data-name=" ">
        <g id="_2" data-name=" 2" style="isolation: isolate">
          <text id="_2-2" data-name="$" transform="translate(48.937 94.963)" fill="#333" font-size="35.157" font-family="KohinoorBangla-Bold, Kohinoor Bangla" font-weight="700" style="isolation: isolate"><tspan x="0" y="0">$</tspan></text>
        </g>
      </g>
      <path id="Path_119" data-name="Path 119" d="M18.369,86.023h-3.91a15.848,15.848,0,0,1-15.8-15.8h0a15.845,15.845,0,0,1,15.8-15.8H15.8a20.836,20.836,0,0,1,25.186-25.41A31.387,31.387,0,0,1,97.5,54.434h1.12a15.844,15.844,0,0,1,15.8,15.8h0a15.845,15.845,0,0,1-15.8,15.8h-2.22" fill="none" stroke="#333" stroke-linecap="round" stroke-linejoin="round" stroke-width="8"/>
    </g>
  </g>
</svg>
