<?xml version="1.0" encoding="utf-8"?>
<!-- Generator: Adobe Illustrator 21.1.0, SVG Export Plug-In . SVG Version: 6.00 Build 0)  -->
<svg version="1.1" id="Layer_1" xmlns="http://www.w3.org/2000/svg" xmlns:xlink="http://www.w3.org/1999/xlink" x="0px" y="0px"
	 viewBox="0 0 120 120" style="enable-background:new 0 0 120 120;" xml:space="preserve">
<g>
	<g>
		<path d="M93.8,72.6c-1.7,0-3.1,1.4-3.1,3.1v14.8H29.3V75.7c0-1.7-1.4-3.1-3.1-3.1s-3.1,1.4-3.1,3.1v17.9c0,1.7,1.4,3.1,3.1,3.1
			h67.6c1.7,0,3.1-1.4,3.1-3.1V75.7C96.9,74,95.5,72.6,93.8,72.6z"/>
		<path d="M57.7,76.3c1.7,1.7,3.9,0.8,4.5,0l17.6-19c1.2-1.2,1.1-3.2-0.2-4.3c-1.2-1.2-3.2-1.1-4.3,0.2L63.1,66.3V26.4
			c0-1.7-1.4-3.1-3.1-3.1s-3.1,1.4-3.1,3.1v39.9L44.6,53.1c-1.2-1.2-3.1-1.3-4.3-0.2C39,54.1,39,56,40.1,57.3L57.7,76.3L57.7,76.3z"
			/>
	</g>
</g>
</svg>
