<?xml version="1.0" encoding="utf-8"?>
<!-- Generator: Adobe Illustrator 21.1.0, SVG Export Plug-In . SVG Version: 6.00 Build 0)  -->
<svg version="1.1" id="Capa_1" xmlns="http://www.w3.org/2000/svg" xmlns:xlink="http://www.w3.org/1999/xlink" x="0px" y="0px"
	 viewBox="0 0 455.7 455.7" style="enable-background:new 0 0 455.7 455.7;" xml:space="preserve">
<path d="M413.6,192.9c-4.5-78.5-86-141.1-185.8-141.1c-102.7,0-186,66.2-186,147.9c0,75.1,70.3,137.1,161.5,146.7
	c5.6,0.6,9.6,5.6,9,11.2l-3.9,34.9c-0.9,7.9,7.3,13.7,14.5,10.2c77-37.2,123-75.4,150.5-108.5c5-6,21.3-28.9,24.6-34.9
	c7.1-12.7,11.9-26.4,14.2-40.8c0.9-4.5,1.3-8.3,1.5-11.3C414.1,202.5,413.7,195.2,413.6,192.9z M154.1,248.8H116
	c-5.3,0-9.5-4.3-9.5-9.5v-71.8c0-5.3,4.3-9.5,9.5-9.5c5.3,0,9.5,4.3,9.5,9.5v62.3h28.5c5.3,0,9.5,4.3,9.5,9.5
	C163.6,244.6,159.3,248.8,154.1,248.8z M191.7,241.4c0,4.1-3.3,7.4-7.4,7.4h-4.2c-4.1,0-7.4-3.3-7.4-7.4v-76c0-4.1,3.3-7.4,7.4-7.4
	h4.2c4.1,0,7.4,3.3,7.4,7.4V241.4z M280.1,238.9c0,5.3-4.3,10-9.6,9.9c-2.5,0-4.8-1-6.4-2.6c-0.6-0.5-39.1-50.5-39.1-50.5v43.6
	c0,5.3-4.3,9.5-9.5,9.5c-5.3,0-9.5-4.3-9.5-9.5v-71.4c0-5.2,4-9.7,9.1-9.9c3-0.1,5.6,1.1,7.5,3.2c0.6,0.7,38.6,50.2,38.6,50.2v-43.9
	c0-5.3,4.3-9.5,9.5-9.5c5.3,0,9.5,4.3,9.5,9.5V238.9z M342,229.8c5.3,0,9.5,4.3,9.5,9.5c0,5.3-4.3,9.5-9.5,9.5h-38.1
	c-5.3,0-9.5-4.3-9.5-9.5v-71.8c0-5.3,4.3-9.5,9.5-9.5H342c5.3,0,9.5,4.3,9.5,9.5c0,5.3-4.3,9.5-9.5,9.5h-28.5v16.9H342
	c5.3,0,9.5,4.3,9.5,9.5c0,5.3-4.3,9.5-9.5,9.5h-28.5v16.9H342z"/>
</svg>
