<?xml version="1.0" encoding="utf-8"?>
<!-- Generator: Adobe Illustrator 21.1.0, SVG Export Plug-In . SVG Version: 6.00 Build 0)  -->
<svg version="1.1" id="Layer_1" xmlns="http://www.w3.org/2000/svg" xmlns:xlink="http://www.w3.org/1999/xlink" x="0px" y="0px"
	 viewBox="0 0 120 120" style="enable-background:new 0 0 120 120;" xml:space="preserve">
<g>
	<g>
		<g>
			<circle cx="60" cy="81.6" r="4.4"/>
			<path d="M60,15c-24.8,0-45,20.1-45,45c0,24.8,20.1,45,45,45c24.8,0,45-20.1,45-45C105,35.2,84.8,15,60,15z M60,97.9
				c-20.9,0-37.9-17-37.9-37.9s17-37.9,37.9-37.9s37.9,17,37.9,37.9S80.9,97.9,60,97.9z"/>
			<path d="M60,37.6c-7.7,0-14.1,6.4-14.1,14.1c0,2,1.6,3.5,3.5,3.5c1.9,0,3.5-1.6,3.5-3.5c0-3.9,3.1-7,7-7s7,3.1,7,7s-3.1,7-7,7
				c-2,0-3.5,1.6-3.5,3.5v8.7c0,2,1.6,3.5,3.5,3.5c1.9,0,3.5-1.6,3.5-3.5v-5.7C69.5,63.5,74,58,74,51.5C74.1,43.9,67.7,37.6,60,37.6
				z"/>
		</g>
	</g>
</g>
</svg>
