<svg xmlns="http://www.w3.org/2000/svg" xmlns:xlink="http://www.w3.org/1999/xlink" width="128" height="128" viewBox="0 0 128 128">
  <defs>
    <clipPath id="clip-icon-mega-bonus">
      <rect width="128" height="128"/>
    </clipPath>
  </defs>
  <g id="icon-mega-bonus" clip-path="url(#clip-icon-mega-bonus)">
    <g id="Group_475" data-name="Group 475" transform="translate(5.249 5.249)">
      <circle id="Ellipse_40_1_" cx="54" cy="54" r="54" stroke-width="8.589" transform="translate(4.751 4.751)" stroke="#333" stroke-linecap="round" stroke-linejoin="round" fill="none"/>
      <g id="Group_474" data-name="Group 474" transform="translate(32.304 28.129)">
        <path id="Path_326" data-name="Path 326" d="M77.819,62.929c-.449-7.252-.812-14.657-.745-21.173h-.22c-1.777,6.363-3.411,11.924-5.628,18.736l-8.15,25.769H56.56L49.012,61.238c-2.15-7.261-3.707-12.956-5.255-19.472h-.22c-.22,6.812-.44,14-.965,21.7L41.387,86.787H33.61L37.537,29.25h9.774l7.854,25.988c2.073,7.109,3.554,12.144,5.112,18.287h.22c1.7-6.3,3.105-11.036,5.255-18.3l8.14-25.988h9.631l3.554,57.538h-8.14Z" transform="translate(-33.61 -29.24)" fill="#333"/>
      </g>
    </g>
  </g>
</svg>
