<?xml version="1.0" encoding="utf-8"?>
<!-- Generator: Adobe Illustrator 21.1.0, SVG Export Plug-In . SVG Version: 6.00 Build 0)  -->
<svg version="1.1" id="Layer_1" xmlns="http://www.w3.org/2000/svg" xmlns:xlink="http://www.w3.org/1999/xlink" x="0px" y="0px"
	 viewBox="0 0 128 128" style="enable-background:new 0 0 128 128;" xml:space="preserve">
<title>icon-menu</title>
<title>icon-menu</title>
<title>icon-menu</title>
<g>
	<path d="M18.7,35h90.6c0.4,0,0.7,0.4,0.7,0.9v8c0,0.5-0.3,0.9-0.7,0.9H18.7c-0.4,0-0.7-0.4-0.7-0.9v-8C18,35.4,18.3,35,18.7,35z"/>
	<path d="M18.5,59.1h69.9c0.3,0,0.5,0.4,0.5,0.9v8c0,0.5-0.2,0.9-0.5,0.9H18.5c-0.3,0-0.5-0.4-0.5-0.9v-8
		C18,59.5,18.2,59.1,18.5,59.1z"/>
	<path d="M18.7,83.2h90.6c0.4,0,0.7,0.4,0.7,0.9v8c0,0.5-0.3,0.9-0.7,0.9H18.7c-0.4,0-0.7-0.4-0.7-0.9v-8
		C18,83.6,18.3,83.2,18.7,83.2z"/>
</g>
</svg>
