<?xml version="1.0" encoding="utf-8"?>
<!-- Generator: Adobe Illustrator 21.1.0, SVG Export Plug-In . SVG Version: 6.00 Build 0)  -->
<svg version="1.1" id="Layer_1" xmlns="http://www.w3.org/2000/svg" xmlns:xlink="http://www.w3.org/1999/xlink" x="0px" y="0px"
	 viewBox="0 0 120 120" style="enable-background:new 0 0 120 120;" xml:space="preserve">
<g>
	<path d="M54.6,211.6c-1.8,0-3.5,1-4.5,2.6c-0.7,1.2-2.2,1.6-3.4,0.9c-1.2-0.7-1.6-2.2-0.9-3.4c1.8-3.1,5.2-5.1,8.8-5.1
		c3.6,0,7,1.9,8.8,5.1c0.7,1.2,0.3,2.7-0.9,3.4c-0.4,0.2-0.8,0.3-1.2,0.3c-0.9,0-1.7-0.4-2.2-1.2C58.1,212.6,56.4,211.6,54.6,211.6z
		 M67.7,238.1c-1.8,0-3.5-1-4.5-2.6c-0.7-1.2-2.2-1.6-3.4-0.9c-1.2,0.7-1.6,2.2-0.9,3.4c1.8,3.1,5.2,5.1,8.8,5.1
		c3.6,0,7-1.9,8.8-5.1c0.7-1.2,0.3-2.7-0.9-3.4c-1.2-0.7-2.7-0.3-3.4,0.9C71.3,237.1,69.6,238.1,67.7,238.1z M120,213.8v11.4
		c0,4.3-3.3,7.8-7.6,7.8h-4.6c-1.5,4.7-3.9,9.3-7.2,13.4c-5.3,6.7-12.6,11.6-20.8,14c-0.4,4.1-3.8,7.3-8,7.3h-8.2
		c-4.4,0-8.1-3.6-8.1-8.1c0-4.4,3.6-8.1,8.1-8.1h8.2c2.9,0,5.5,1.6,6.9,4c15.4-4.8,26-19,26-35.3c0-15.9-10.1-29.5-24.2-34.7
		c-3.7,4.5-8.3,8.2-13.4,10.9c-5.9,3-12.5,4.6-19.2,4.6c-0.8,0-1.6,0-2.3-0.1c-1.4-0.1-2.4-1.3-2.4-2.6c0.1-1.4,1.2-2.4,2.6-2.4
		c0.7,0,1.4,0.1,2.1,0.1c10.6,0,20.3-4.3,27.3-12c-2.3-0.5-4.8-0.8-7.2-0.8c0,0,0,0-0.1,0l0,0c0,0,0,0-0.1,0h0c0,0,0,0-0.1,0h0
		c0,0,0,0,0,0c-20.4,0-36.9,16.6-36.9,37v10.1c0,1.4-1.2,2.6-2.6,2.6H23c-4.3,0-7.7-3.6-7.7-7.8v-11.4c0-3.4,2.2-6.3,5.4-7.3
		c1.3-0.4,2.7,0.3,3.2,1.6c0.4,1.3-0.3,2.7-1.6,3.1c-1.1,0.4-1.9,1.4-1.9,2.6v11.4c0,1.5,1.2,2.8,2.7,2.8h2.8v-7.7
		c0-23.1,18.7-42,41.9-42c0,0,0,0,0,0c0,0,0,0,0,0h0h0c0,0,0,0,0,0h0c0,0,0,0,0,0h0c0,0,0,0,0,0c0,0,0,0,0,0c0,0,0,0,0,0
		c0,0,0,0,0,0c0,0,0,0,0,0c0,0,0,0,0,0c0,0,0,0,0,0c0,0,0,0,0,0c0,0,0,0,0,0c0,0,0,0,0,0h0c0,0,0,0,0,0h0c0,0,0,0,0,0c0,0,0,0,0,0
		c0,0,0,0,0,0c0,0,0,0,0,0c0,0,0,0,0,0c0,0,0,0,0,0l0,0c0,0,0,0,0,0l0,0c0,0,0,0,0,0c0,0,0,0,0,0c0,0,0,0,0,0c0,0,0,0,0,0
		c0,0,0,0,0,0c0,0,0,0,0,0l0,0c0,0,0,0,0,0c0,0,0,0,0,0c0,0,0,0,0,0c0,0,0,0,0,0c0,0,0,0,0,0c0,0,0,0,0,0c0,0,0,0,0.1,0h0
		c0,0,0,0,0,0h0c3.8,0.3,7.6,0.8,11.2,2c0.1,0,0.1,0.1,0.1,0.1c16.9,5.4,29.1,21.3,29.1,40c0,2.6-0.2,5.2-0.7,7.7h3.4
		c1.5,0,2.6-1.3,2.6-2.8v-11.4c0-1.2-0.7-2.2-1.8-2.6c-1.3-0.4-2-1.8-1.6-3.1c0.4-1.3,1.8-2,3.1-1.6
		C117.9,207.5,120,210.4,120,213.8z M74.9,259.7c0-0.2,0-0.4-0.1-0.6c0,0,0-0.1,0-0.1c-0.3-1.4-1.5-2.4-3-2.4h-8.2
		c-1.7,0-3.1,1.4-3.1,3.1c0,1.7,1.4,3.1,3.1,3.1h8.2C73.5,262.7,74.9,261.4,74.9,259.7z M73,215.1c1.2,0.7,2.7,0.3,3.4-0.9
		c0.9-1.6,2.6-2.6,4.5-2.6c1.8,0,3.5,1,4.5,2.6c0.5,0.8,1.3,1.2,2.2,1.2c0.4,0,0.9-0.1,1.2-0.3c1.2-0.7,1.6-2.2,0.9-3.4
		c-1.8-3.1-5.2-5.1-8.8-5.1s-7,1.9-8.8,5.1C71.4,212.9,71.8,214.4,73,215.1z"/>
</g>
<g>
	<g>
		<g>
			<g>
				<path d="M17.4,63.1c1.7,0,3.1-1.3,3.1-3.1c0-10.8,4.3-20.5,11.4-27.6c7-7,16.8-11.4,27.6-11.4c7.9,0,15.4,2.4,21.7,6.6
					c4.2,2.8,7.8,6.4,10.6,10.7L88.3,37c-1.6-0.6-3.3,0.2-3.9,1.8c-0.6,1.6,0.2,3.3,1.8,3.9l11,4.3c0.8,0.3,1.6,0.3,2.3,0
					c0.8-0.3,1.4-1,1.8-1.8l4.3-11c0.6-1.6-0.2-3.3-1.8-3.9c-1.6-0.6-3.3,0.2-3.9,1.8L98,36.7c-3.4-5.7-8-10.4-13.4-14
					C77.3,17.7,68.6,15,59.4,15C47,15,35.7,20,27.6,28.2C19.4,36.3,14.3,47.6,14.3,60C14.3,61.7,15.7,63.1,17.4,63.1z"/>
				<path d="M102.5,56.9c-1.7,0-3.1,1.3-3.1,3.1c0,10.8-4.3,20.5-11.4,27.6C81,94.6,71.2,99,60.4,99c-7.9,0-15.4-2.4-21.7-6.6
					C34.6,89.6,31,86,28.1,81.7l3.5,1.3c1.6,0.6,3.3-0.2,3.9-1.8c0.6-1.6-0.2-3.3-1.8-3.9l-11-4.3c-0.8-0.3-1.6-0.3-2.3,0
					c-0.8,0.3-1.4,1-1.8,1.8l-4.2,11c-0.6,1.6,0.2,3.3,1.8,3.9s3.3-0.2,3.9-1.8l1.8-4.8c3.4,5.7,8,10.4,13.4,14
					c7.3,4.9,15.9,7.7,25.1,7.7c12.4,0,23.7-5,31.8-13.2c8.2-8.2,13.2-19.4,13.2-31.8C105.6,58.3,104.2,56.9,102.5,56.9z"/>
			</g>
		</g>
	</g>
	<g>
		<path d="M55.7,47.2c1.6,1.4,2.4,3.3,2.4,5.6c0,2.2-0.9,4.3-2.5,6.1c-1,1.1-2.8,2.5-5.3,4.1c-2.6,1.7-4.2,3.2-4.8,4.5h12.7v3.7h-18
			c0-2.6,0.8-4.9,2.6-6.9c0.9-1.1,2.9-2.7,5.9-4.7c1.7-1.2,2.8-2.1,3.5-2.9c1.1-1.3,1.7-2.6,1.7-4.1c0-1.4-0.4-2.5-1.1-3.1
			c-0.8-0.7-1.9-1-3.4-1c-1.6,0-2.8,0.5-3.6,1.6c-0.8,1-1.2,2.6-1.3,4.6h-4.2c0-2.9,0.9-5.2,2.5-7c1.7-1.9,3.9-2.8,6.7-2.8
			C52,45.1,54.1,45.8,55.7,47.2z"/>
		<path d="M77.1,45.6v16.9h3.8v3.4h-3.8v5.5h-4v-5.5H60.7v-4l12.6-16.2H77.1z M64.1,62.5h9V50.9H73L64.1,62.5z"/>
	</g>
</g>
</svg>
