<svg xmlns="http://www.w3.org/2000/svg" xmlns:xlink="http://www.w3.org/1999/xlink" viewBox="0 0 128 128">
  <defs>
    <style>
      .cls-1 {
        clip-path: url(#clip-icon-search);
      }

      .cls-2, .cls-3 {
        fill: none;
      }

      .cls-2 {
        stroke: #231f20;
        stroke-linecap: round;
        stroke-linejoin: round;
        stroke-miterlimit: 10;
        stroke-width: 16px;
      }

      .cls-4, .cls-5 {
        stroke: none;
      }

      .cls-5 {
        fill: #231f20;
      }
    </style>
    <clipPath id="clip-icon-search">
      <rect width="128" height="128"/>
    </clipPath>
  </defs>
  <g id="icon-search" class="cls-1">
    <g id="Group_98" data-name="Group 98" transform="translate(-828.781 -238.8)">
      <line id="Line_81" data-name="Line 81" class="cls-2" x2="33.434" y2="24.557" transform="translate(912.448 323.666)"/>
      <g id="Path_85" data-name="Path 85" class="cls-3" transform="translate(839.781 257.793)">
        <path class="cls-4" d="M43.979,0A43.979,43.979,0,1,1,0,43.979,43.979,43.979,0,0,1,43.979,0Z"/>
        <path class="cls-5" d="M 43.97900009155273 6 C 23.03730773925781 6 6 23.03730773925781 6 43.97900009155273 C 6 64.92069244384766 23.03730773925781 81.95800018310547 43.97900009155273 81.95800018310547 C 64.92069244384766 81.95800018310547 81.95800018310547 64.92069244384766 81.95800018310547 43.97900009155273 C 81.95800018310547 23.03730773925781 64.92069244384766 6 43.97900009155273 6 M 43.97900009155273 0 C 68.26792907714844 0 87.95800018310547 19.69007110595703 87.95800018310547 43.97900009155273 C 87.95800018310547 68.26792907714844 68.26792907714844 87.95800018310547 43.97900009155273 87.95800018310547 C 19.69007110595703 87.95800018310547 0 68.26792907714844 0 43.97900009155273 C 0 19.69007110595703 19.69007110595703 0 43.97900009155273 0 Z"/>
      </g>
      <g id="Path_86" data-name="Path 86" class="cls-3" transform="translate(849.588 267.6)">
        <path class="cls-4" d="M34.172,0A34.172,34.172,0,1,1,0,34.172,34.172,34.172,0,0,1,34.172,0Z"/>
        <path class="cls-5" d="M 34.17241287231445 5.999996185302734 C 18.63808822631836 5.999996185302734 5.999996185302734 18.63808822631836 5.999996185302734 34.17241287231445 C 5.999996185302734 49.70673370361328 18.63808822631836 62.34482955932617 34.17241287231445 62.34482955932617 C 49.70673370361328 62.34482955932617 62.34482955932617 49.70673370361328 62.34482955932617 34.17241287231445 C 62.34482955932617 18.63808822631836 49.70673370361328 5.999996185302734 34.17241287231445 5.999996185302734 M 34.17241287231445 0 C 53.04531860351562 0 68.34482574462891 15.29950332641602 68.34482574462891 34.17241287231445 C 68.34482574462891 53.04531860351562 53.04531860351562 68.34482574462891 34.17241287231445 68.34482574462891 C 15.29950332641602 68.34482574462891 0 53.04531860351562 0 34.17241287231445 C 0 15.29950332641602 15.29950332641602 0 34.17241287231445 0 Z"/>
      </g>
    </g>
  </g>
</svg>
