<?xml version="1.0" encoding="utf-8"?>
<!-- Generator: Adobe Illustrator 23.1.1, SVG Export Plug-In . SVG Version: 6.00 Build 0)  -->
<svg version="1.1" xmlns="http://www.w3.org/2000/svg" xmlns:xlink="http://www.w3.org/1999/xlink" x="0px" y="0px"
	 viewBox="0 0 128 128" style="enable-background:new 0 0 128 128;" xml:space="preserve">
<style type="text/css">
	.st0{fill:#E74F95;}
	.st1{fill:#FFFFFF;}
</style>
<g id="Layer_1">
	<g>
		<g>
			<path class="st0" d="M123.3,88.1c0-5.8-6.5-11.1-17-14.9c-9.8,5.3-23.2,8.8-38.1,9.3v22.8C98.9,104.8,123.3,97.2,123.3,88.1z"/>
		</g>
		<g>
			<path class="st0" d="M21.7,73.1C11.2,77,4.7,82.2,4.7,88c0,12.1,38.5,18.1,63.4,17.2V82.4C49.5,83.2,32.5,79.1,21.7,73.1z"/>
		</g>
		<g>
			<path class="st0" d="M68.1,116.5c-11.9,0-26.9-22.8-33.6-51c-6.1-26-3.2-47.8,7-50.8L53,11.5l0.9,0.2l-0.7,0.2
				c-10,2.8-12.8,24.4-6.9,50.3c6.5,28.1,21.4,50.8,33,50.8c0.7,0,1.6-0.2,2.3-0.4l0.5-0.2l-0.2,0.5c-0.2,0.2-9,2.6-11.4,3.3
				C69.7,116.4,68.8,116.5,68.1,116.5z"/>
			<g>
				<path class="st1" d="M53,11.6L53,11.6C43,14.4,39.8,36,46.1,62.2C52.8,90.4,67.8,113,79.6,113c0.9,0,1.6-0.2,2.3-0.4l0,0
					c0,0-9,2.5-11.2,3.2c-0.7,0.2-1.6,0.4-2.5,0.4c-11.8,0-26.7-22.8-33.4-50.8c-6.1-26-3-47.6,6.9-50.4L53,11.6 M81.8,112.7
					L81.8,112.7 M53,11.3L53,11.3l-11.6,3.3c-10.2,3-13.4,25-7.2,51C40.9,93.9,56,116.7,68,116.7c0.9,0,1.8-0.2,2.5-0.4
					c2.3-0.7,11.2-3.2,11.2-3.2h0.2L82,113l0.7-1.1l-1.2,0.4c-0.7,0.2-1.4,0.4-2.3,0.4c-11.6,0-26.4-22.7-32.9-50.4
					C40.2,36.6,43.2,15,53,12.2l1.6-0.5L53,11.3L53,11.3L53,11.3z M81.8,112.3L81.8,112.3L81.8,112.3L81.8,112.3z"/>
			</g>
		</g>
		<g>
			<path class="st1" d="M88.7,62.2C82,34.1,67.1,11.5,55.5,11.5c-11.8,0-15.8,22.8-9.3,50.8C52.8,90.4,67.8,113,79.6,113
				C91.1,113,95.2,90.4,88.7,62.2z"/>
		</g>
		<g>
			<polygon class="st0" points="68,48.2 68,66.3 77.3,77.9 77.3,61.9 			"/>
		</g>
		<g>
			<g>
				<path class="st0" d="M86.8,45.2v23.4c2.3,0.4,4.4,0.7,6.5,1.2V46.4C91.1,45.9,89,45.6,86.8,45.2z"/>
			</g>
			<g>
				<path class="st0" d="M82,44.5v23.4c0.7,0.2,1.6,0.2,2.3,0.4V44.8C83.6,44.8,82.7,44.7,82,44.5z"/>
			</g>
			<g>
				<path class="st0" d="M119.1,57.1v23.4c2.6,2.5,4,4.9,4,7.7V64.9C123.3,62.1,121.7,59.4,119.1,57.1z"/>
			</g>
			<g>
				<path class="st0" d="M107,50.3v23.4c3.9,1.4,7.2,3.2,9.7,4.9V55.2C114.2,53.3,110.8,51.7,107,50.3z"/>
			</g>
			<g>
				<path class="st0" d="M95.7,47v23.4c3.2,0.7,6.1,1.6,9,2.5V49.4C101.9,48.4,98.9,47.7,95.7,47z"/>
			</g>
		</g>
		<g>
			<g>
				<path class="st0" d="M8.9,56.8v23.4c0.9-0.9,2.1-1.6,3.2-2.5V54.5C11,55.2,10,56.1,8.9,56.8z"/>
			</g>
			<g>
				<path class="st0" d="M4.7,64.9v23.4c0-1.8,0.7-3.7,1.9-5.3V59.6C5.2,61.2,4.7,62.9,4.7,64.9z"/>
			</g>
			<g>
				<path class="st0" d="M40.9,72.4c-0.7,0-1.4-0.5-1.4-1.4v-2.3c-1.2,0.2-2.6,0.4-3.9,0.7h-0.2V45.7h0.2c1.2-0.2,2.6-0.5,3.9-0.7
					v-3.2c0-0.7,0.5-1.4,1.4-1.4c0.4,0,0.5,0.2,0.7,0.2l18.3,13.2c0.4,0.2,0.5,0.7,0.5,1.1c0,0.4-0.2,0.9-0.5,1.1L41.6,72
					C41.6,72.3,41.2,72.4,40.9,72.4L40.9,72.4z"/>
				<g>
					<path class="st1" d="M40.9,40.8c0.2,0,0.5,0,0.7,0.2l18.3,13.2c0.5,0.4,0.7,1.2,0,1.8L41.6,72c-0.2,0.2-0.5,0.4-0.7,0.4
						c-0.5,0-1.1-0.5-1.1-1.1v-2.5c-1.4,0.2-2.8,0.5-4,0.7V45.9c1.4-0.2,2.6-0.5,4-0.7v-3.3C39.8,41.2,40.4,40.8,40.9,40.8
						 M40.9,40.3c-0.9,0-1.6,0.7-1.6,1.6v3c-1.4,0.2-2.6,0.5-3.7,0.7h-0.4V46v23.2v0.5l0.5-0.2c1.1-0.2,2.3-0.4,3.5-0.7v2.1
						c0,0.9,0.7,1.6,1.6,1.6c0.4,0,0.7-0.2,1.1-0.4l18.3-16c0.4-0.4,0.5-0.7,0.5-1.2S60.6,54,60,53.6L41.8,40.5
						C41.6,40.5,41.2,40.3,40.9,40.3L40.9,40.3z"/>
				</g>
			</g>
			<g>
				<path class="st0" d="M22.4,49.1l0.5-0.2c3.5-1.1,7.7-2.3,11.9-3.2H35v23.7h-0.2c-4.2,0.9-8.3,1.9-11.9,3l-0.7,0.2V49.1H22.4z"/>
				<g>
					<path class="st1" d="M35.1,46.1v23.4c-4.6,0.9-8.6,2.1-12.3,3.2V49.2C26.5,48.2,30.7,47,35.1,46.1 M35.6,45.6l-0.5,0.2
						c-4.4,0.9-8.4,1.9-12.1,3.2l-0.4,0.2L22.2,49v0.4v23.4v0.5l0.5-0.2l0.5-0.2c3.5-1.1,7.6-2.3,11.8-3h0.4v-0.4V46.1v-0.5H35.6z"
						/>
				</g>
			</g>
			<g>
				<path class="st0" d="M14.7,53.1v23.4c1.8-0.9,3.5-1.8,5.6-2.6V50.5C18.2,51.3,16.3,52.1,14.7,53.1z"/>
			</g>
		</g>
	</g>
</g>
<g id="圖層_1">
</g>
</svg>
