<svg width="580" height="400" xmlns="http://www.w3.org/2000/svg">
 <!-- Created with Method Draw - http://github.com/duopixel/Method-Draw/ -->
 <g>
  <title>background</title>
  <rect fill="#fff" id="canvas_background" height="402" width="582" y="-1" x="-1"/>
  <g display="none" overflow="visible" y="0" x="0" height="100%" width="100%" id="canvasGrid">
   <rect fill="url(#gridpattern)" stroke-width="0" y="0" x="0" height="100%" width="100%"/>
  </g>
 </g>
 <g>
  <title>Layer 1</title>
  <path d="m61.31818,174.886368c1,0 3.190281,-3.881516 5.000004,-7c4.489372,-7.735992 8.58596,-14.430252 20,-25c6.764587,-6.264221 10.881523,-9.190277 14,-11c1.933998,-1.122345 3.62001,-2.325012 9,1c3.609009,2.230484 5.839821,6.012909 6,7c0.506538,3.121445 2.704384,7.014603 3,10c0.502449,5.074203 3,8 5,14l0,2l0,2l1,2" id="svg_1" stroke-width="1.5" stroke="#000" fill="none"/>
  <path d="m165.318176,172.886368c1,0 4.787094,-3.537018 11,-15c5.75766,-10.623047 8.44397,-29.110931 16,-43.000008c3.059952,-5.624649 8.404007,-9.41156 13,-13c3.34407,-2.61097 9,-3 13,-3c4,0 6.418854,-0.581139 8,1c1.581146,1.581139 3.729614,4.228851 8,9c1.886337,2.107544 5.692383,5.410919 9,10c3.922363,5.441978 8,11.000008 11,16.000008l5,7l2,3l1,2" id="svg_2" stroke-width="1.5" stroke="#000" fill="none"/>
  <path d="m97.318184,206.886368c1,0 2.550377,0.641174 5,5c2.638329,4.694595 7.104446,9.932938 9,13c4.238579,6.85817 5.729622,10.228851 10,15c4.715843,5.268845 10.422371,9.532822 15.999992,15c4.572739,4.482193 10,7.999985 12,9.999985c4,4 7.876892,7.876892 12,12c4.123108,4.123108 8.802429,6.432892 15,9c2.92157,1.210144 6.10701,1.919006 10,1c4.352509,-1.027496 7.899353,-7.119446 15,-13c4.931519,-4.084137 7.346191,-6.705475 9,-9c1.307449,-1.813995 3.847977,-6.079712 6,-9.999985c2.805908,-5.11145 5.095444,-8.977341 6,-13c1.118668,-4.974792 1.080994,-7.10701 2,-11c1.027481,-4.352509 3,-9 3,-13c0,-4 0,-7 0,-7c0,-2 0,-5 0,-9c0,-3 1,-4 1,-4c0,-1 0,-3 0,-3l0,-2l0,-1l0,0" id="svg_4" stroke-width="1.5" stroke="#000" fill="none"/>
  <path d="m232.318176,338.886353c0,0 -1,0 -2,0c-1,0 -10.982147,0.499847 -32,1c-13.996033,0.333038 -27.256577,0.581146 -32,-1c-4.743423,-1.581146 -7.904358,-3.258026 -13,-5c-13.777405,-4.7099 -21.471817,-8.984314 -31.999992,-14c-10.566826,-5.034119 -20.046585,-7.848877 -30,-11c-6.029602,-1.908905 -13,-5 -19,-7c-3,-1 -11.179222,-2.589905 -23.000004,-8c-8.132946,-3.72226 -13.73325,-8.232727 -18.999998,-14c-3.814632,-4.177155 -8.846783,-7.385559 -13,-14c-6.425332,-10.233017 -10.811063,-25.746826 -17,-46.999985c-2.305539,-7.917358 -3,-14 -3,-22c0,-6 -0.354445,-14.012573 0,-19c0.501261,-7.053284 3.136661,-13.955597 6,-23c3.151119,-9.953415 6.106264,-18.592865 11,-25c3.433676,-4.495544 7.161242,-8.796272 11,-12.000008c5.150234,-4.298264 12.888136,-8.27742 24.999998,-13c21.810116,-8.504059 35.094433,-12.797256 46.000004,-18c8.072662,-3.851242 20.811623,-8.730438 34.999992,-12c16.821808,-3.876411 41,-5 55,-5c16,0 30.083908,0.218239 43,2c10.102371,1.393608 20.315399,1.43531 29,4c4.289032,1.266609 8.372009,3.385094 12,6c4.589081,3.307617 10.002106,8.181786 18,19c6.932739,9.377472 11.072937,17.95488 16,26c3.045319,4.972527 5.080994,11.107018 6,15.000008c2.054962,8.705002 6.981628,15.712006 8,21c0.567322,2.945862 0,8 0,13c0,6 0.693512,9.048325 0,14c-1.009766,7.209747 -6,12 -10,19c-4,7 -7,11 -9,15c-3,6 -5.723999,12.222733 -9,16c-3.70639,4.273499 -8.937897,10.047348 -12,14c-3.921417,5.061844 -6.724274,8.725693 -10,12.999985c-3.041443,3.968597 -8.107452,7.096771 -12,13c-2.964478,4.495758 -3.721695,9.038147 -8,13c-1.640656,1.519287 -5.232742,5.733246 -11,11c-5.221436,4.76828 -7.404007,8.41156 -12,12c-2.229385,1.740662 -7.229355,6.33197 -11,8c-3.297333,1.458649 -6,4 -8,5c-2,1 -4,2 -7,3l-1,2l-1,0" id="svg_5" stroke-width="1.5" stroke="#000" fill="none"/>
  <path d="m383.318176,351.886353c-1,0 -2.259338,-0.77063 -4,-3c-3.58844,-4.595978 -4.498291,-7.937958 -5,-14c-0.082489,-0.996582 0,-4 0,-6c0,-3 0,-6 0,-10c0,-6 0,-9 0,-12c0,-3 0,-4 0,-7c0,-6 0.511261,-9.029968 1,-13c0.503784,-4.092224 0.540497,-7.053497 1,-9c0.513733,-2.176239 2,-5 4,-7c2,-2 4.519287,-4.558197 7,-8c1.307465,-1.813995 3.585785,-1.585785 5,-3c0.707092,-0.707092 1,-1 2,-1c1,0 4.647491,3.972504 9,5c1.946503,0.459503 2.458801,0.693451 3,2c0.38269,0.923889 1,4 2,4l0,1l2,1" id="svg_6" stroke-width="1.5" stroke="#000" fill="none"/>
  <path d="m410.318176,271.886353c-1,0 -2.337494,-2.309998 -4,-5c-2.230499,-3.609009 -6.789856,-10.07843 -8,-12.999985c-1.711426,-4.131714 -3.372559,-9.303604 -7,-16c-3.434692,-6.340576 -10.986908,-16.757111 -12,-23c-0.640717,-3.948349 0,-7 0,-11c0,-4 1.972504,-8.647491 3,-13c0.919006,-3.89299 2,-8 5,-12c3,-4 4.563507,-7.702499 7,-13c1.321381,-2.872971 1.076111,-3.61731 2,-4c1.306549,-0.541199 2,-1 2,-1c1,1 5.222717,2.723984 9,6c3.205109,2.779785 5.692535,5.186005 7,7c1.653809,2.29454 3.144287,2.934143 4,5c1.210144,2.92157 2.972504,4.647491 4,9c0.919006,3.89299 0,8 0,12c0,5 1,8 1,11c0,4 0,8 0,11c0,4 0,5 0,7c0,1 0,2 0,3c0,2 0,3 0,4c0,3 -0.458801,5.306564 -1,4c-1.148041,-2.771637 -0.295624,-7.014603 0,-10c0.502441,-5.074203 3.729614,-8.228851 8,-13c5.659027,-6.322617 9.186005,-9.692551 11,-11c1.147278,-0.826904 1.718994,-3.310211 5,-6c2.78833,-2.285873 4.386871,-5.917603 7,-7c0.923889,-0.38269 1.009735,0.197083 3,0c5.074219,-0.502441 6,-1 6,-1c1,0 2.648865,2.19577 5,6c2.628662,4.25325 5,8 6,10c2,4 2.493469,7.878555 3,11c0.640717,3.948349 0.530731,9.304489 -1,13c-1.082397,2.613129 -1.851959,5.228363 -3,8c-1.082397,2.613129 -4.549011,5.606415 -8,11c-1.205139,1.883514 -2,3 -2,3c0,2 -2,4.999985 -4,7.999985c-2,3 -3.458801,4.693451 -4,6c-0.38269,0.923889 -0.765381,-0.152252 0,-2c1.082397,-2.613129 4.486267,-2.823761 5,-5c0.229767,-0.973236 1,-1 2,-1c3,0 5.647491,0.972504 10,2c2.919739,0.68927 6.085815,-0.579559 8,0c3.450836,1.04483 4.206818,2.812653 6,5c2.285889,2.78833 3.714111,7.21167 6,10c1.793182,2.187347 3.337494,5.309998 5,8c2.230499,3.609009 4.147736,5.94342 6,11c2.175385,5.93866 4.511261,9.029968 5,13c0.503784,4.092224 1,6 1,10c0,4 -2.33197,10.22937 -4,14c-1.458649,3.297333 -3.186005,5.692535 -5,7c-2.294525,1.653809 -2.134644,3.811462 -5,6c-2.513092,1.919495 -3.878693,1.878693 -6,4c-1.414215,1.414215 -0.92807,2.611053 -3,5c-1.465088,1.68924 -4,3 -5,3c0,0 -1,0 -2,0l-2,0l-1,0" id="svg_7" stroke-width="1.5" stroke="#000" fill="none"/>
  <path d="m395.318176,330.886353c3,0 7.848724,3.430206 13,5c13.695984,4.173706 19,3 22,3c2,0 2.878693,2.121307 5,0c2.121307,-2.121307 1.309998,-3.337494 4,-5c4.812012,-2.973999 5,-6 6,-6c1,0 3,-4 4,-5c0,0 -0.134644,-0.811462 -3,-3c-5.026154,-3.838959 -9.303589,-4.372559 -16,-8c-3.170288,-1.717346 -6,-2 -8,-2c-3,0 -4,0 -8,0c-1,0 -2.878571,1.493469 -6,2c-2.961273,0.48056 -6,1 -7,1l-1,0" id="svg_9" fill-opacity="null" stroke-opacity="null" stroke-width="1.5" stroke="#000" fill="none"/>
  <path d="m415.318176,282.886353c1,0 1.776367,0.408936 7,3c4.82428,2.392975 8.742828,5.344574 14,9c4.787384,3.328796 9,4 11,6c1,1 1.076111,0.61731 2,1c2.613129,1.082397 3.824432,3.0979 5,5c2.102936,3.402618 0,8 0,12c0,3 0,4 0,4l0,0l-1,0l-1,0" id="svg_12" fill-opacity="null" stroke-opacity="null" stroke-width="1.5" stroke="#000" fill="none"/>
 </g>
</svg>