<svg id="bf7548d3-0dd5-459d-b44d-04ed7935a7f5" data-name="圖層 1" xmlns="http://www.w3.org/2000/svg" xmlns:xlink="http://www.w3.org/1999/xlink" viewBox="0 0 601.39 742.42"><defs><clipPath id="bb4536ff-78cc-423f-9623-1c4d7a64e722" transform="translate(24.72 -130.18)"><rect width="547" height="745" style="fill:none"/></clipPath><linearGradient id="f3d34d0d-92e3-4343-9e41-7aba93afd5a7" x1="-24.72" y1="571.81" x2="492.98" y2="571.81" gradientUnits="userSpaceOnUse"><stop offset="0" stop-color="#eef2f7"/><stop offset="1" stop-color="#c4e5f9"/></linearGradient><linearGradient id="b841cc13-af2d-45fb-a440-f1a2a3340f9d" x1="158.77" y1="671.73" x2="563.33" y2="671.73" xlink:href="#f3d34d0d-92e3-4343-9e41-7aba93afd5a7"/><linearGradient id="fb9c339b-6073-4e24-953d-bfe7b45eb0ed" x1="212.14" y1="753.91" x2="576.67" y2="753.91" xlink:href="#f3d34d0d-92e3-4343-9e41-7aba93afd5a7"/><linearGradient id="b8534bb8-ea4a-4942-bd6e-8e6645aea06b" x1="195.03" y1="393.01" x2="198.79" y2="389.25" gradientUnits="userSpaceOnUse"><stop offset="0" stop-color="#f0f3f8"/><stop offset="0.09" stop-color="#c6cbd5"/><stop offset="0.21" stop-color="#979dae"/><stop offset="0.33" stop-color="#6f768c"/><stop offset="0.45" stop-color="#4d5670"/><stop offset="0.58" stop-color="#343d5a"/><stop offset="0.71" stop-color="#212b4b"/><stop offset="0.85" stop-color="#172042"/><stop offset="1" stop-color="#131d3f"/></linearGradient><linearGradient id="b5665245-bf39-4bc5-be17-b14d63aa9786" x1="200.01" y1="389.2" x2="209.67" y2="379.55" xlink:href="#b8534bb8-ea4a-4942-bd6e-8e6645aea06b"/><linearGradient id="e27be56c-e3ac-4a8a-aafe-17811dc147e0" x1="-11.69" y1="338.17" x2="283.25" y2="338.17" gradientUnits="userSpaceOnUse"><stop offset="0" stop-color="#f0f3f8"/><stop offset="0.18" stop-color="#ddecf5"/><stop offset="0.43" stop-color="#cce5f2"/><stop offset="0.69" stop-color="#c1e1f1"/><stop offset="1" stop-color="#bee0f0"/></linearGradient></defs><title>引導圖1</title><g style="clip-path:url(#bb4536ff-78cc-423f-9623-1c4d7a64e722)"><g style="clip-path:url(#bb4536ff-78cc-423f-9623-1c4d7a64e722)"><path d="M489.56,512.9c4.61-3,4.55-7.8-.14-10.68L341.48,411.35c-4.68-2.88-12.4-3-17.15-.19L-21,613c-4.75,2.77-4.94,7.61-.42,10.74L134.64,732.06c4.52,3.14,12,3.25,16.6.26Z" transform="translate(24.72 -130.18)" style="fill:url(#f3d34d0d-92e3-4343-9e41-7aba93afd5a7)"/><path d="M559.9,581.57c4.62-3,4.57-7.81-.11-10.7L513.15,542c-4.68-2.9-12.23-2.73-16.77.36L162,769.82c-4.55,3.1-4.28,7.71.6,10.25l41.72,21.74c4.88,2.55,12.65,2.18,17.26-.82Z" transform="translate(24.72 -130.18)" style="fill:url(#b841cc13-af2d-45fb-a440-f1a2a3340f9d)"/><path d="M30.21,503.86a12,12,0,0,0-9,10.92L20.77,537c-.11,4.95,3.08,11.39,7.08,14.3L177.46,660.43a14,14,0,0,0,14.79.37L533.13,437c4.14-2.72,7.53-9,7.53-13.94V401.72a7,7,0,0,0-8.8-7.09Z" transform="translate(24.72 -130.18)" style="fill:#709db1"/><path d="M536.45,404.86c4.62-3,4.56-7.8-.13-10.67L388.38,303.32c-4.69-2.88-12.41-3-17.15-.19L25.86,504.92c-4.74,2.78-4.93,7.61-.41,10.75L181.54,624c4.52,3.14,12,3.26,16.6.27Z" transform="translate(24.72 -130.18)" style="fill:#95cde7"/><polygon points="116.49 347.96 264.72 449.3 531.88 281.8 381.13 193.03 116.49 347.96" style="fill:#d7e8f1"/><path d="M235.07,525.53c-1.89,1.11-1.95,3-.13,4.27l19.34,13.1A6.62,6.62,0,0,0,261,543l20.89-13.29c1.86-1.18,1.88-3.14,0-4.36L263.43,513a7,7,0,0,0-6.78-.19Z" transform="translate(24.72 -130.18)" style="fill:#fff"/><path d="M190.69,494.54c-1.9,1.11-2,3-.14,4.27l19.34,13.1a6.62,6.62,0,0,0,6.69.1l20.88-13.3c1.86-1.18,1.88-3.14,0-4.36L219,482a7,7,0,0,0-6.77-.19Z" transform="translate(24.72 -130.18)" style="fill:#fff"/><path d="M146.22,464.62c-1.9,1.12-2,3-.14,4.27l18,12.22a6.62,6.62,0,0,0,6.69.1l19.5-12.41c1.86-1.19,1.88-3.15.05-4.37L173.15,453a7,7,0,0,0-6.78-.2Z" transform="translate(24.72 -130.18)" style="fill:#fff"/><path d="M287,492.86c-1.9,1.12-2,3-.14,4.28l19.34,13.1a6.64,6.64,0,0,0,6.69.09L333.77,497c1.86-1.18,1.88-3.15.05-4.37l-18.47-12.31a7,7,0,0,0-6.77-.19Z" transform="translate(24.72 -130.18)" style="fill:#fff"/><path d="M240.1,462.72c-1.9,1.11-2,3-.14,4.27l19.34,13.1a6.64,6.64,0,0,0,6.69.09l20.88-13.29c1.86-1.18,1.88-3.15.05-4.37l-18.47-12.31a7,7,0,0,0-6.77-.19Z" transform="translate(24.72 -130.18)" style="fill:#fff"/><path d="M191.78,434.89c-1.9,1.12-2,3-.14,4.27l18,12.22a6.62,6.62,0,0,0,6.69.1l19.5-12.41c1.86-1.19,1.88-3.15,0-4.37l-17.21-11.48a7,7,0,0,0-6.78-.19Z" transform="translate(24.72 -130.18)" style="fill:#fff"/><polygon points="251.32 268.4 395.37 367.23 532.72 280.97 381.97 192.19 251.32 268.4" style="fill:#fff"/><path d="M334.54,384a1.5,1.5,0,0,1-1.44,2l-24.67,1.07a2.5,2.5,0,0,1-2.44-1.87l-3.75-16.49a1.58,1.58,0,0,1,1.56-2l23.61-.51a2.75,2.75,0,0,1,2.56,1.87Z" transform="translate(24.72 -130.18)" style="fill:#fabf00"/><path d="M352.17,446.41a1.51,1.51,0,0,1-1.45,2l-24.67,1.06a2.5,2.5,0,0,1-2.44-1.87l-3.75-16.49a1.57,1.57,0,0,1,1.56-2l23.62-.52a2.73,2.73,0,0,1,2.55,1.88Z" transform="translate(24.72 -130.18)" style="fill:#d0d4d7"/><path d="M389.51,444.57a1.51,1.51,0,0,1-1.45,2l-24.66,1.06a2.49,2.49,0,0,1-2.44-1.86l-3.75-16.5a1.56,1.56,0,0,1,1.55-2l23.62-.52a2.74,2.74,0,0,1,2.55,1.88Z" transform="translate(24.72 -130.18)" style="fill:#979d9c"/><path d="M432.75,443.21a1.5,1.5,0,0,1-1.44,2l-24.67,1.07a2.51,2.51,0,0,1-2.44-1.87l-3.75-16.49a1.58,1.58,0,0,1,1.56-2l23.62-.52a2.75,2.75,0,0,1,2.55,1.88Z" transform="translate(24.72 -130.18)" style="fill:#62bc83"/><path d="M346.21,415.86a1.5,1.5,0,0,1-1.44,2l-24.67,1.06a2.49,2.49,0,0,1-2.44-1.86l-3.75-16.5a1.57,1.57,0,0,1,1.56-2l23.61-.52a2.76,2.76,0,0,1,2.56,1.88Z" transform="translate(24.72 -130.18)" style="fill:#f4aca2"/><path d="M386.56,412.13a1.51,1.51,0,0,1-1.44,2l-24.67,1.06a2.49,2.49,0,0,1-2.44-1.86l-3.75-16.5a1.56,1.56,0,0,1,1.55-2l23.62-.52a2.75,2.75,0,0,1,2.56,1.88Z" transform="translate(24.72 -130.18)" style="fill:#b8cfec"/><path d="M426.17,411.66a1.51,1.51,0,0,1-1.45,2l-24.66,1.07a2.53,2.53,0,0,1-2.45-1.87l-3.74-16.49a1.57,1.57,0,0,1,1.55-2l23.62-.52a2.74,2.74,0,0,1,2.55,1.88Z" transform="translate(24.72 -130.18)" style="fill:#fcda6f"/><path d="M378.6,382.84a1.5,1.5,0,0,1-1.44,2l-24.67,1.07a2.51,2.51,0,0,1-2.44-1.87l-3.75-16.49a1.58,1.58,0,0,1,1.56-2l23.62-.52a2.75,2.75,0,0,1,2.55,1.88Z" transform="translate(24.72 -130.18)" style="fill:#d0d4d7"/><path d="M418.21,382.38a1.51,1.51,0,0,1-1.44,2l-24.67,1.06a2.49,2.49,0,0,1-2.44-1.86l-3.75-16.5a1.56,1.56,0,0,1,1.55-2l23.62-.52a2.74,2.74,0,0,1,2.55,1.88Z" transform="translate(24.72 -130.18)" style="fill:#f4aca2"/><ellipse cx="159.17" cy="418.32" rx="17.2" ry="14.5" style="fill:#709db1"/><path d="M569.13,636.9c-4.14-2.56-11.26-2.13-15.8,1L219,865.3c-4.55,3.09-7.55,6-6.66,6.46s6.1.84,11.6.84h81.44a39.88,39.88,0,0,0,18.39-5.44L568.28,708.55c4.61-3,8.39-9.94,8.39-15.44V651.56C576.67,646.06,573.28,639.46,569.13,636.9Z" transform="translate(24.72 -130.18)" style="fill:url(#fb9c339b-6073-4e24-953d-bfe7b45eb0ed)"/></g><line x1="188.85" y1="385.43" x2="204.97" y2="396.82" style="fill:none;stroke-miterlimit:10;stroke-width:2px;stroke:url(#b8534bb8-ea4a-4942-bd6e-8e6645aea06b)"/><polyline points="193.72 381.89 210.47 382.32 210.47 392.32" style="fill:none;stroke-miterlimit:10;stroke-width:2px;stroke:url(#b5665245-bf39-4bc5-be17-b14d63aa9786)"/><path d="M283.25,317s-111-283-262-118c-111.43,121.76,91,180,147,330C168.25,529,115.25,283,283.25,317Z" transform="translate(24.72 -130.18)" style="opacity:0.4;fill:url(#e27be56c-e3ac-4a8a-aafe-17811dc147e0)"/><path d="M98.09,270.91a3.53,3.53,0,0,1,4.31,3.17L105.82,309a4.65,4.65,0,0,1-3.52,4.85l-38.23,8.48a3.51,3.51,0,0,1-4.33-3.11L56,283.75A4.52,4.52,0,0,1,59.45,279Z" transform="translate(24.72 -130.18)" style="fill:#fff"/><path d="M181.36,260.56a3.52,3.52,0,0,1,4.31,3.16l3.41,34.94a4.64,4.64,0,0,1-3.51,4.85L147.34,312a3.5,3.5,0,0,1-4.33-3.11l-3.78-35.49a4.51,4.51,0,0,1,3.49-4.79Z" transform="translate(24.72 -130.18)" style="fill:#fff"/><path d="M131.7,335.61a3.54,3.54,0,0,1,4.31,3.17l3.41,34.94a4.65,4.65,0,0,1-3.51,4.85l-38.23,8.48a3.5,3.5,0,0,1-4.33-3.11l-3.78-35.49a4.51,4.51,0,0,1,3.49-4.79Z" transform="translate(24.72 -130.18)" style="fill:#fff"/><g style="opacity:0.68"><path d="M37.23,135.11a3.51,3.51,0,0,1,4.3,3.16L45,173.21a4.65,4.65,0,0,1-3.52,4.85L3.2,186.54a3.49,3.49,0,0,1-4.32-3.11l-3.79-35.49a4.53,4.53,0,0,1,3.49-4.79Z" transform="translate(24.72 -130.18)" style="fill:#fff"/></g><g style="opacity:0.68"><path d="M114.76,130.26a3.53,3.53,0,0,1,4.31,3.17l3.41,34.94a4.65,4.65,0,0,1-3.51,4.85L80.74,181.7a3.51,3.51,0,0,1-4.33-3.12L72.63,143.1a4.5,4.5,0,0,1,3.49-4.79Z" transform="translate(24.72 -130.18)" style="fill:#fff"/></g><g style="opacity:0.68"><path d="M69.3,200.78A3.52,3.52,0,0,1,73.6,204L77,238.89a4.65,4.65,0,0,1-3.52,4.85l-38.23,8.48A3.5,3.5,0,0,1,31,249.11l-3.79-35.49a4.52,4.52,0,0,1,3.49-4.79Z" transform="translate(24.72 -130.18)" style="fill:#fff"/></g><g style="opacity:0.68"><path d="M147.56,193.42a3.53,3.53,0,0,1,4.31,3.17l3.41,34.94a4.64,4.64,0,0,1-3.51,4.85l-38.23,8.48a3.51,3.51,0,0,1-4.33-3.11l-3.78-35.49a4.51,4.51,0,0,1,3.49-4.79Z" transform="translate(24.72 -130.18)" style="fill:#fff"/></g></g></svg>