<svg id="a927868f-7a2c-4f4b-9533-bd8c607d2e6a" data-name="圖層 1" xmlns="http://www.w3.org/2000/svg" xmlns:xlink="http://www.w3.org/1999/xlink" viewBox="0 0 544.43 575.05"><defs><linearGradient id="a8208814-4971-4646-8b74-1ac0e464bf04" y1="391.32" x2="544.43" y2="391.32" gradientUnits="userSpaceOnUse"><stop offset="0" stop-color="#eef2f7"/><stop offset="1" stop-color="#c4e5f9"/></linearGradient></defs><title>引導圖2</title><rect x="91.54" y="635.42" width="13.42" height="11.18" transform="translate(-551.15 517.07) rotate(-79.3)" style="fill:#f3b9c1"/><path d="M104.39,644.84a1.28,1.28,0,0,1,1.1,1.09s.72,6.9,5.18,9.76c4.68,3,10.36,5.61,16.31,4.41,4.33-.88,10.25,5.12,6.38,8.38-3.08,2.59-10.26,4.72-14.49,4.32a178.9,178.9,0,0,1-20.51-3.65c-3-.8-10.9-2.89-11.52-3.52-.94-1-.8-2.39-.6-3.64.4-2.52,2.38-13.63,3.16-17.65C89.58,643.41,104.39,644.84,104.39,644.84Z" transform="translate(-1.29 -101.5)" style="fill:#df9300"/><rect x="115.24" y="639.13" width="13.42" height="11.18" transform="translate(-535.49 543.38) rotate(-79.3)" style="fill:#f3b9c1"/><path d="M128.09,648.54a1.27,1.27,0,0,1,1.1,1.09s.73,6.91,5.19,9.76c4.67,3,10.35,5.62,16.31,4.41,4.32-.87,10.25,5.12,6.37,8.38-3.08,2.59-10.26,4.73-14.48,4.32a176.89,176.89,0,0,1-20.52-3.64c-3-.8-10.9-2.9-11.52-3.53-.94-1-.8-2.39-.6-3.64.4-2.52,2.39-13.63,3.16-17.65C113.28,647.11,128.09,648.54,128.09,648.54Z" transform="translate(-1.29 -101.5)" style="fill:#f6aa00"/><polygon points="0 221.7 0 431.64 343.44 560.94 544.43 560.66 544.43 509.09 0 221.7 0 221.7" style="fill:url(#a8208814-4971-4646-8b74-1ac0e464bf04)"/><path d="M448.89,103.86c21.28,3.89,24.26,26.72,24.27,42.79q.13,228.68.28,457.33c0,17.95,0,43.81-19.62,53.76-16.95,8.59-39.58,9.3-58.47,8.22,23.73-34.32,41.06-72.19,40.74-111.8-1-121.28,1.73-239.89.74-361.17-.13-15.28,3.59-37.19-.65-52.06s-21.88-30.07-36.39-39.41C407.94,101.52,441.91,102.59,448.89,103.86Z" transform="translate(-1.29 -101.5)" style="fill:#709db1"/><path d="M207,573.22c.26,18.35-4.93,74.45,16.59,81.82a83.38,83.38,0,0,0,23.35,4.62l145.59,6.06c8.47.36,17.22.67,25.15-1.82,11.78-3.71,19.86-13.19,23.53-23.23s3.58-20.74,3.46-31.24Q442,376.23,439.44,143c-.29-25.43-12.63-42-45-41.5-43.81.64-87.58,3.41-131,8.29-14.92,1.68-30.76,4-41.83,12.48-14.42,11.07-16.51,29.14-17.32,45.48C203.86,175.82,205.71,488.22,207,573.22Z" transform="translate(-1.29 -101.5)" style="fill:#95cde7"/><polygon points="234.18 49.85 234.18 474.78 407.78 474.78 407.78 40.45 234.18 49.85" style="fill:#fff"/><polyline points="254.75 73.84 244.77 74.44 244.73 84.44" style="fill:none;stroke:#95cde7;stroke-miterlimit:10;stroke-width:5px"/><line x1="244.66" y1="103.04" x2="244.14" y2="242.54" style="fill:none;stroke:#95cde7;stroke-miterlimit:10;stroke-width:5px;stroke-dasharray:18.600265502929688,18.600265502929688"/><polyline points="244.1 251.84 244.07 261.84 254.07 261.82" style="fill:none;stroke:#95cde7;stroke-miterlimit:10;stroke-width:5px"/><line x1="273.38" y1="261.77" x2="379.59" y2="261.52" style="fill:none;stroke:#95cde7;stroke-miterlimit:10;stroke-width:5px;stroke-dasharray:19.31148338317871,19.31148338317871"/><polyline points="389.25 261.5 399.25 261.47 399.25 251.47" style="fill:none;stroke:#95cde7;stroke-miterlimit:10;stroke-width:5px"/><line x1="399.25" y1="231.88" x2="399.25" y2="84.92" style="fill:none;stroke:#95cde7;stroke-miterlimit:10;stroke-width:5px;stroke-dasharray:19.59408187866211,19.59408187866211"/><polyline points="399.25 75.13 399.25 65.13 389.26 65.73" style="fill:none;stroke:#95cde7;stroke-miterlimit:10;stroke-width:5px"/><line x1="370.05" y1="66.89" x2="264.36" y2="73.26" style="fill:none;stroke:#95cde7;stroke-miterlimit:10;stroke-width:5px;stroke-dasharray:19.251338958740234,19.251338958740234"/><path d="M347.07,617.21c0,16.37-11.77,29.18-26.3,29.18s-26.31-13.27-26.31-29.64,11.78-29.64,26.31-29.64S347.07,600.85,347.07,617.21Z" transform="translate(-1.29 -101.5)" style="fill:#709db1"/><path d="M268,287.38a4.06,4.06,0,0,0-4,4.07l.26,40.95a4,4,0,0,0,4,4H299a4,4,0,0,0,4-4V290.74a3.92,3.92,0,0,0-4-3.92Z" transform="translate(-1.29 -101.5)" style="fill:#a0bbca"/><g style="opacity:0.68"><path d="M343.9,385.09a4.07,4.07,0,0,0-4,4.07l.28,42.5a4,4,0,0,0,4,4h32a4,4,0,0,0,4-4V388.43a3.93,3.93,0,0,0-4-3.93Z" transform="translate(-1.29 -101.5)" style="fill:#bee0f0"/></g><path d="M272.54,474.65a4.07,4.07,0,0,0-4,4.05l0,40.95a4,4,0,0,0,4,4l30.74.17a4,4,0,0,0,4-4l.23-41.66a3.93,3.93,0,0,0-4-3.95Z" transform="translate(-1.29 -101.5)" style="fill:#bee0f0"/><path d="M178.32,328.9" transform="translate(-1.29 -101.5)" style="fill:#f4a793"/><g style="opacity:0.68"><path d="M343.9,470.25a4.08,4.08,0,0,0-4,4.08l.28,42.49a4,4,0,0,0,4,4h32a4,4,0,0,0,4-4V473.59a3.92,3.92,0,0,0-4-3.92Z" transform="translate(-1.29 -101.5)" style="fill:#bee0f0"/></g><path d="M84.25,490.38l26,2.22,3.73,145.92-25.2-.1s1.71-63.32,0-72.59C87.25,557.78,80.87,504.38,84.25,490.38Z" transform="translate(-1.29 -101.5)" style="fill:#29469b"/><path d="M76.89,454.82s69.58,7.41,74.76,5.19-5.92,90.36-8.15,97S136.1,643,136.1,643H102v-87.4s1.59-23.65-8.88-45.93C84.71,491.73,71.94,478.59,76.89,454.82Z" transform="translate(-1.29 -101.5)" style="fill:#3150a2"/><path d="M113.1,398.19c-6.49.4-44,58.86-35.38,81.63,11.57,30.59-17.81,21.92-19.08,12.77-3.93-28.39,33.27-100,49.53-113.32,6.54-5.35,32.59-4.31,41-4.37C153.68,374.87,168.77,394.79,113.1,398.19Z" transform="translate(-1.29 -101.5)" style="fill:#f3b9c1"/><path d="M90.32,377.22c-10,24.1-18,79.92-16.76,81.29s82.19,15,85.32,6.15c4.33-12.2,1.06-89.43-2.59-114.33-2.19-14.89-38.52-27.63-46.2-13C108,341.22,96.92,361.36,90.32,377.22Z" transform="translate(-1.29 -101.5)" style="fill:#f6aa00"/><path d="M129.53,337c5.21.86,9.72-.18,10.07-2.31a1.41,1.41,0,0,0,0-.29c-6.16-2.6-13-4-18.68-3.35a1.54,1.54,0,0,0-.2.54C120.38,333.68,124.32,336.11,129.53,337Z" transform="translate(-1.29 -101.5)" style="fill:#df9300"/><path d="M155.7,259.68c1,.39,1.89,1.48,3,3.68,2,4.15,2.8,12.39,3.1,17,.49,7.55,9.79,16.26,7.51,18.4-2.48,2.33-8-.33-10.09,1.55-4.86,4.36-1.11,31.7-34.76,27.43-36.33-4.6-14.87-56.72-7.72-61.68C121.13,263,151.89,258.24,155.7,259.68Z" transform="translate(-1.29 -101.5)" style="fill:#f3b9c1"/><rect x="124.58" y="324.8" width="6.33" height="10.75" transform="translate(-220.05 301.25) rotate(-80.68)" style="fill:#f3b9c1"/><path d="M133.56,230.88c-15.17-3.21-36.42,9.47-44.25,32.81-3.35,10-.54,20.5-5.38,31.89-4,9.42,2.65-2.06-20,27.8-6.24,8.22,34.65,21.09,42.48,21.35,21.27.71,10.25-56.54,18.74-63.69,2.71-2.27,32.24-20.05,32.24-20.05a7.77,7.77,0,0,0,3.38-7.49S157.53,236,133.56,230.88Z" transform="translate(-1.29 -101.5)" style="fill:#1d294b"/><line x1="261.25" y1="93.72" x2="268.36" y2="100.35" style="fill:#fff;stroke:#fff;stroke-linecap:round;stroke-linejoin:round;stroke-width:3px"/><line x1="261.49" y1="100.59" x2="268.12" y2="93.48" style="fill:#fff;stroke:#fff;stroke-linecap:round;stroke-linejoin:round;stroke-width:3px"/><g style="opacity:0.68"><g style="opacity:0.68"><path d="M343.9,196.6a4.08,4.08,0,0,0-4,4.08l.28,42.49a4,4,0,0,0,4,4h32a4,4,0,0,0,4-4V199.94a3.92,3.92,0,0,0-4-3.92Z" transform="translate(-1.29 -101.5)" style="fill:#bee0f0"/></g><path d="M352.26,196.43c0,6.07-4.42,10.8-9.81,10.77s-9.73-5-9.7-11,4.43-11,9.82-10.93S352.29,190.36,352.26,196.43Z" transform="translate(-1.29 -101.5)" style="fill:#a0bbca"/><line x1="337.54" y1="91.49" x2="344.66" y2="98.13" style="fill:#fff;stroke:#fff;stroke-linecap:round;stroke-linejoin:round;stroke-width:3px"/><line x1="337.78" y1="98.37" x2="344.42" y2="91.26" style="fill:#fff;stroke:#fff;stroke-linecap:round;stroke-linejoin:round;stroke-width:3px"/></g><g style="opacity:0.68"><g style="opacity:0.68"><path d="M266.86,199.57a4.07,4.07,0,0,0-4,4.07l.27,42.5a4.05,4.05,0,0,0,4,4h32a4,4,0,0,0,4-4V202.91a3.93,3.93,0,0,0-4-3.93Z" transform="translate(-1.29 -101.5)" style="fill:#bee0f0"/></g><path d="M275.22,199.39c0,6.07-4.42,10.8-9.81,10.77s-9.73-5-9.69-11,4.42-11,9.81-10.94S275.26,193.32,275.22,199.39Z" transform="translate(-1.29 -101.5)" style="fill:#a0bbca"/><line x1="260.51" y1="94.46" x2="267.62" y2="101.09" style="fill:#fff;stroke:#fff;stroke-linecap:round;stroke-linejoin:round;stroke-width:3px"/><line x1="260.75" y1="101.33" x2="267.38" y2="94.22" style="fill:#fff;stroke:#fff;stroke-linecap:round;stroke-linejoin:round;stroke-width:3px"/></g><g style="opacity:0.68"><g style="opacity:0.68"><path d="M343.9,285.84a4.08,4.08,0,0,0-4,4.08l.28,42.49a4,4,0,0,0,4,4h32a4,4,0,0,0,4-4V289.18a3.92,3.92,0,0,0-4-3.92Z" transform="translate(-1.29 -101.5)" style="fill:#bee0f0"/></g><path d="M352.26,285.32c0,6.07-4.42,10.79-9.81,10.76s-9.73-5-9.7-11,4.43-11,9.82-10.94S352.29,279.25,352.26,285.32Z" transform="translate(-1.29 -101.5)" style="fill:#a0bbca"/><line x1="337.54" y1="180.38" x2="344.66" y2="187.02" style="fill:#fff;stroke:#fff;stroke-linecap:round;stroke-linejoin:round;stroke-width:3px"/><line x1="337.78" y1="187.25" x2="344.42" y2="180.14" style="fill:#fff;stroke:#fff;stroke-linecap:round;stroke-linejoin:round;stroke-width:3px"/></g><g style="opacity:0.68"><path d="M270.9,389.09a4.07,4.07,0,0,0-4,4.07l.28,42.5a4,4,0,0,0,4,4h32a4,4,0,0,0,4-4V392.43a3.93,3.93,0,0,0-4-3.93Z" transform="translate(-1.29 -101.5)" style="fill:#bee0f0"/></g><circle cx="273.63" cy="290.5" r="15" style="fill:#ed7048;opacity:0.5"/><path d="M160.81,404.58c3,5.75,69.13,12.73,88.95-1.41,9.81-7,20.95-10.18,24.05-6.59,1.05,1.22-5.34,2.53-9.1,4.33-4,1.89-5.33,4.28-4.73,5.14,3.6,5.15,5.86,8.27,1.73,10.87-24.25,15.29-97.28,9.28-116.11-.06-7.57-3.75-17.36-27.91-20.89-35.59C122.84,377.21,134.77,355.26,160.81,404.58Z" transform="translate(-1.29 -101.5)" style="fill:#f3b9c1"/><path d="M115.09,378c1.84,6.7,5.86,17.87,10.26,24,3.67,5.1,7.46,8.34,8.24,8.28,1.3-.1,18.34-33.27,18.06-35.54-.34-2.65-17.54-22-25.29-25.33C112,343.23,110.23,360.28,115.09,378Z" transform="translate(-1.29 -101.5)" style="fill:#df9300"/><path d="M117.17,377.63c1.42,4.06,14.61,32.76,16.42,32.61,1.3-.1,18.34-33.27,18.06-35.54-.34-2.65-17.54-22-25.29-25.33C112,343.23,110.2,357.7,117.17,377.63Z" transform="translate(-1.29 -101.5)" style="fill:#f6aa00"/><path d="M151.65,374.7c-.08-.63-8.15,7.25-12.08,14.72-4.28,8.14-6.32,20.85-6,20.82C134.89,410.14,151.93,377,151.65,374.7Z" transform="translate(-1.29 -101.5)" style="fill:#df9300"/></svg>