<svg id="a9aca664-8330-47f9-9f30-5d19298a1da0" data-name="圖層 1" xmlns="http://www.w3.org/2000/svg" xmlns:xlink="http://www.w3.org/1999/xlink" viewBox="0 0 543.07 661.11"><defs><linearGradient id="a8095689-c33c-478c-b939-f67748a089a6" x1="88.76" y1="555.71" x2="534.35" y2="555.71" gradientUnits="userSpaceOnUse"><stop offset="0" stop-color="#eef2f7"/><stop offset="1" stop-color="#c4e5f9"/></linearGradient></defs><title>引導圖3</title><g style="opacity:0.68"><path d="M413.7,307.47a4,4,0,0,0,1.71,3L538.05,386c.93.58,1.71.15,1.73-.95l4-295.5A3.2,3.2,0,0,0,542,86.74l-126.45-52A1.25,1.25,0,0,0,413.7,36Z" transform="translate(-0.75 -34.62)" style="fill:#bee0f0"/></g><g style="opacity:0.68"><path d="M202.21,324.56c1,6.52,6.32,8.78,11.74,5l9.59-6.65c5.42-3.76,8.91-12.16,7.76-18.65L210.23,185.1c-1.15-6.49-6.37-8.51-11.59-4.48L191,186.53c-5.22,4-8.65,12.67-7.62,19.18Z" transform="translate(-0.75 -34.62)" style="fill:#bee0f0"/></g><g style="opacity:0.68"><path d="M122.48,299.58c4.36,5,9.06,6.17,10.45,2.68s-1.11-10.33-5.55-15.21l-21.2-23.28c-4.44-4.88-9-6.13-10.16-2.77s1.48,10.15,5.84,15.11Z" transform="translate(-0.75 -34.62)" style="fill:#bee0f0"/></g><g style="opacity:0.68"><path d="M102.92,331.13c4.35,4.95,8.83,6.72,10,3.91s-1.6-9.1-6-14L92.91,305.77c-4.45-4.88-8.84-6.66-9.76-4s1.89,9,6.24,13.92Z" transform="translate(-0.75 -34.62)" style="fill:#bee0f0"/></g><path d="M530.93,505.61c4.62-3,4.56-7.8-.13-10.68l-125.39-77c-4.69-2.88-12.41-3-17.16-.19L92.45,590.56c-4.75,2.78-4.94,7.61-.42,10.75l132.51,92c4.52,3.13,12,3.25,16.61.26Z" transform="translate(-0.75 -34.62)" style="fill:url(#a8095689-c33c-478c-b939-f67748a089a6)"/><ellipse cx="177.42" cy="490.49" rx="18.44" ry="11.21" style="fill:#d0d4d7"/><path d="M151.24,287.73c2.11,6.25,7.13,8.4,11.14,4.77s5.46-11.68,3.23-17.89L146.74,222c-2.23-6.22-7-8.35-10.59-4.74s-4.8,11.67-2.69,17.93Z" transform="translate(-0.75 -34.62)" style="fill:#bee0f0"/><path d="M101.29,479.45a12,12,0,0,0-9,10.92L92,507.08C91.85,512,95,518.46,99,521.38l127.17,92.78a14,14,0,0,0,14.8.37L533.24,422.68c4.14-2.71,7.53-9,7.53-13.94v-16a7,7,0,0,0-8.8-7.08Z" transform="translate(-0.75 -34.62)" style="fill:#709db1"/><path d="M536,395c4.62-3,4.56-7.8-.13-10.68l-125.39-77c-4.69-2.88-12.41-3-17.16-.19L97.51,479.94c-4.75,2.77-4.94,7.61-.42,10.75l132.52,92c4.51,3.14,12,3.26,16.6.27Z" transform="translate(-0.75 -34.62)" style="fill:#95cde7"/><polygon points="152.48 422.89 280.45 510.37 511.1 365.77 380.95 289.13 152.48 422.89" style="fill:#fff"/><polygon points="353.34 464.68 383.59 445.72 248.88 366.12 219.31 383.43 353.34 464.68" style="fill:#bee0f0;opacity:0.68"/><polygon points="264.09 357.59 396.26 438.02 426.76 418.9 293.42 340.42 264.09 357.59" style="fill:#bee0f0;opacity:0.68"/><path d="M333.32,476.06l20.58,12.38a2.26,2.26,0,0,0,2.25.05l3.08-1.67a2.27,2.27,0,0,0,.06-3.94l-20.93-12.27a2.27,2.27,0,0,0-2.27,0l-2.73,1.56A2.27,2.27,0,0,0,333.32,476.06Z" transform="translate(-0.75 -34.62)" style="fill:#33afe6;opacity:0.6"/><polygon points="308.84 331.37 439.8 410.65 469.95 391.74 338.5 314 308.84 331.37" style="fill:#bee0f0;opacity:0.68"/><polygon points="306.48 494.47 336.85 474.95 204.81 391.79 175.26 409.09 306.48 494.47" style="fill:#bee0f0;opacity:0.68"/><polygon points="487.09 380.82 511.1 365.77 380.95 289.13 355.78 303.86 487.09 380.82" style="fill:#5ba1c5;opacity:0.68"/><path d="M398.85,348l1.11-1,12.77,7.73-1.11,1-6.59-4-4.5,3.92,1,.44-.89.78a8,8,0,0,0,2.31.25,7.33,7.33,0,0,1,1-3.11l.54.08-.69-.42,1.06-.91,5.22,3.16-1.11,1a18,18,0,0,1-4.08,1.3,5,5,0,0,0,1.32,2.19c-.54.27-1.09.51-1.64.73a7.28,7.28,0,0,1-1.35-2.79,18.94,18.94,0,0,1-3.93-.24,2.58,2.58,0,0,0,.12-.34,5,5,0,0,0,.36-1,.42.42,0,0,0,.21.05.26.26,0,0,0,.16,0l-.58-.27-1.22,1.06-1.21-.73,1.11-1c-.36-.16-.87-.42-1.54-.77-1.55-.72-2.79-1.28-3.71-1.67l.9-1,1.21.58,4.94-4.31Zm3.47-.61,4.22-3.68,9.49,5.76-4.21,3.67Zm-1,2.08-.94.82,2.53,1.53.94-.82Zm-1.83,1.59-1,.88,2.53,1.53,1-.87Zm-3.05,2.67,1.43.62c.6.31,1.06.53,1.38.67l.88-.78-2.53-1.53ZM407,345.47l-.72.63,6.65,4,.72-.63Zm-1.5,1.3-.77.68,6.64,4,.78-.68Zm2.27,9.33-2.48-1.5a6.8,6.8,0,0,0-.62,2.41A14.62,14.62,0,0,0,407.73,356.1Z" transform="translate(-0.75 -34.62)" style="fill:#f0f3f8"/><path d="M410.18,362.83l-.61-1a36.08,36.08,0,0,0,3.87-1.58l.67,1A41.54,41.54,0,0,1,410.18,362.83ZM419,354.3l1.22-1.06,2.43,1.47.34-.53a3.55,3.55,0,0,0,.46-.79l1.64.75-1,1.46,2.16,1.31L425,358l-4.54-2.75a18.54,18.54,0,0,1-.55,2l-1.24-.09,1.53.92c.59-.19,1.46-.51,2.62-1l.44-.15.77,1.12c-.87.3-1.71.56-2.51.78l1.69,1L422,361l-2.58-1.56-1.28,1.11,2.32,1.4L419.27,363,417,361.6l-3.11,2.71a2.4,2.4,0,0,1-3,.54l-.53-.32a7.47,7.47,0,0,1-.74-.36c.11-.16.28-.38.51-.68l.56-.73a6.12,6.12,0,0,0,.89.63.91.91,0,0,0,1.3-.12l2.83-2.47-2.48-1.5,1.22-1.06,2.48,1.5,1.28-1.11-2.8-1.7,1.22-1.06,1.8,1.08.18-.62a9.06,9.06,0,0,0,.36-1.26l1.56.13Zm-3.54,10.81c.12-.42.34-1,.65-1.82.12-.31.2-.53.24-.67l1.5.17a4.51,4.51,0,0,1-.29.8c-.21.7-.39,1.25-.54,1.64Zm2.71,4.26,6.88-6-1.58-.95-.23.19a21.3,21.3,0,0,1-8.24,5c0-.13-.1-.36-.19-.69s-.11-.56-.14-.74c2.24-.55,4.7-2.05,7.37-4.48l5.32-4.64q2.49,1.33,5.46,2.57l-.85,1.37c-.82-.33-2-.85-3.5-1.55-.46-.22-.82-.38-1.06-.48l-2.61,2.27,4.27,2.59L427.71,365l-1.42-.86-6.89,6Z" transform="translate(-0.75 -34.62)" style="fill:#f0f3f8"/><path d="M432.31,368.53c0-.24-.05-.61-.07-1.11-.11-.83-.18-1.45-.21-1.85l2-.37c0,.23.07.56.12,1a16.68,16.68,0,0,1,.26,2Zm-7,5.29-1-1.2q3.35-1.74,6.53-3.59a2.3,2.3,0,0,0,.52.64,4.36,4.36,0,0,0,.41.58l-3.57,2Zm10.83-8.28a16.76,16.76,0,0,0-.17-3l1.9-.33c.09.55.21,1.31.35,2.27a5.14,5.14,0,0,0,.09.62Zm2.95,1.95c.13-.74.25-1.67.37-2.81l1.77-.07c-.06.94-.15,1.88-.25,2.8Zm-11.47,7.82,9.49-8.28,3.33,2,3.72-3.24,1.47.89L442,369.94l3.33,2-7.49,6.53a2.77,2.77,0,0,1-3.57.54l-1.8-1.09q.68-.82,1-1.35l1.53.93a1.29,1.29,0,0,0,1.78-.15l.55-.49L432,373.65l-2.88,2.52Zm9.64-6.3-1.44,1.26,5.33,3.23,1.44-1.26Zm-2.66,2.32-1.39,1.21,5.33,3.23,1.39-1.21Zm9.5-.72-.06-1.35c1.73-.26,3-.47,3.84-.62L448,370C446.9,370.2,445.62,370.41,444.14,370.61Z" transform="translate(-0.75 -34.62)" style="fill:#f0f3f8"/><path d="M441.35,382.45l-.61-1.19a39.37,39.37,0,0,0,3.94-1.71l.82,1.15A44.93,44.93,0,0,1,441.35,382.45Zm4.36-3.26,7.27-6.34,3.43,2.08c.55-.33,1.06-.62,1.54-.88l1.42,1c-.44.22-.95.46-1.53.71l4.9,3-7.27,6.34Zm7.54-4.54-1,.87,7,4.25,1-.87Zm-2,1.74-1.06.92,7,4.25,1.05-.92Zm-2,1.74-1.05.92,7,4.25,1.06-.92Zm-4.87,7q-1.78-1,0-2.53l2.11-1.84,1.37.84-1.77,1.54c-.63.5-.57.94.17,1.34l2.11,1.27a1.47,1.47,0,0,0,1.72.14c.14-.07.42-.23.82-.48a5.23,5.23,0,0,1,.66-.42,6.83,6.83,0,0,0,.82,1.15,18.81,18.81,0,0,1-1.7,1,2.87,2.87,0,0,1-3.22-.15Zm4-.53c.16-.72.31-1.48.45-2.27l1.72.06a13,13,0,0,1-.16,1.46c0,.36-.07.61-.08.77Zm3.95,3.95a2.29,2.29,0,0,1,.13-.5c.28-1,.49-1.91.63-2.65l1.77.09c-.22,1.07-.45,2.14-.7,3.19Z" transform="translate(-0.75 -34.62)" style="fill:#f0f3f8"/><ellipse cx="197.2" cy="483.88" rx="17.2" ry="14.5" style="fill:#709db1"/><ellipse cx="354.5" cy="450.06" rx="7.5" ry="6.32" style="fill:#33afe6"/><path d="M420.32,419.06l20.58,12.38a2.26,2.26,0,0,0,2.25.05l3.08-1.67a2.27,2.27,0,0,0,.06-3.94l-20.93-12.27a2.27,2.27,0,0,0-2.27,0l-2.73,1.56A2.27,2.27,0,0,0,420.32,419.06Z" transform="translate(-0.75 -34.62)" style="fill:#33afe6;opacity:0.6"/><ellipse cx="441.5" cy="393.06" rx="7.5" ry="6.32" style="fill:#33afe6"/><path d="M376.32,447.06l20.58,12.38a2.26,2.26,0,0,0,2.25.05l3.08-1.67a2.27,2.27,0,0,0,.06-3.94l-20.93-12.27a2.27,2.27,0,0,0-2.27,0l-2.73,1.56A2.27,2.27,0,0,0,376.32,447.06Z" transform="translate(-0.75 -34.62)" style="fill:#33afe6;opacity:0.6"/><ellipse cx="397.5" cy="421.06" rx="7.5" ry="6.32" style="fill:#33afe6"/><path d="M292.32,504.06l20.58,12.38a2.26,2.26,0,0,0,2.25,0l3.08-1.67a2.27,2.27,0,0,0,.06-3.94l-20.93-12.27a2.27,2.27,0,0,0-2.27,0l-2.73,1.56A2.27,2.27,0,0,0,292.32,504.06Z" transform="translate(-0.75 -34.62)" style="fill:#33afe6;opacity:0.6"/><ellipse cx="313.5" cy="478.06" rx="7.5" ry="6.32" style="fill:#33afe6"/><path d="M.75,686.41c37.68-11.92,76.18-24.1,108.66-46.47-4.73,3.23-30.14-49-33.6-51.47C69.23,583.69,8.61,571.31.75,600Z" transform="translate(-0.75 -34.62)" style="fill:#3150a2"/><path d="M.75,686.41c37.68-11.92,76.18-24.1,108.66-46.47-4.73,3.23-7.86-12.13-7.86-7.86,0,9.29-82.21,43.61-100.8,44.32Z" transform="translate(-0.75 -34.62)" style="fill:#29469b"/><path d="M.75,629.93v1.43c17.87-25,65.08-13.26,66.54-16.06C62.82,612.91,15.76,604.2.75,629.93Z" transform="translate(-0.75 -34.62)" style="fill:#29469b"/><path d="M241,568.45c5.42,3.17,61.88-17.14,67.2-40,7.15-30.74,26.05-8,22.16,0-12.1,24.89-75.38,55.91-95.57,57.85-8.12.78-28.45-14-35.25-18.53C195.89,565.37,194.48,541.29,241,568.45Z" transform="translate(-0.75 -34.62)" style="fill:#f0b9be"/><path d="M197.34,368.29c-10.72-32.89,30.74-40,13.89,17.32-3.3,11.23-13.12,46.63-18.2,50.51-1.39,1.07-15.7.08-1.84-31.34C195.29,395.49,200.5,378,197.34,368.29Z" transform="translate(-0.75 -34.62)" style="fill:#f0b9be"/><path d="M69.74,586c2.56,10,35.74,56.48,38.81,56.91,4.66.66,57.29-50.27,74.57-75l.48-.69c7.49,3,24.1,18.13,25.52,17.6,3.62-1.34,30-28.83,24.32-30.26-9.35-2.33-58.1-35.45-64.28-47.47-14.5,15.71-27.48,32.86-43.09,47.47C106.19,573.1,78.31,581.85,69.74,586Z" transform="translate(-0.75 -34.62)" style="fill:#f6aa00"/><path d="M211.83,438.06c1.21.24,2.34,1.28,3.92,3.5,3,4.17,5.3,13,6.45,18,1.89,8.18,13.64,16,11.52,18.79-2.3,3-8.81,1.06-10.76,3.5-4.53,5.64,4.48,34.88-33.11,36.26-40.58,1.49-26.46-59.39-19.52-66.1C174.61,447.91,207.4,437.18,211.83,438.06Z" transform="translate(-0.75 -34.62)" style="fill:#f0b9be"/><path d="M187.11,411.58c-16.32-3.45-39.18,10.19-47.6,35.3-3.6,10.72-4.2,45.79-11.83,74.75-2.83,10.73,19.7,13.35,28.13,13.63,22.88.76,13.12-62,22.26-69.71,2.91-2.45,35-21.77,35-21.77a7.77,7.77,0,0,0,3.37-7.49S212.9,417,187.11,411.58Z" transform="translate(-0.75 -34.62)" style="fill:#1d294b"/><path d="M448.94,146.93a1.35,1.35,0,0,1-1,2.12l-9.22,1.8a2.85,2.85,0,0,1-2.89-1.38l-5.57-10.62a1.35,1.35,0,0,1,1.05-2.09l8.87-1.43a3.1,3.1,0,0,1,3,1.42Z" transform="translate(-0.75 -34.62)" style="fill:#fabf00"/><path d="M473.28,190.05a1.35,1.35,0,0,1-1,2.12L463.08,194a2.86,2.86,0,0,1-2.89-1.39L454.62,182a1.35,1.35,0,0,1,1-2.09l8.87-1.43a3.14,3.14,0,0,1,3,1.42Z" transform="translate(-0.75 -34.62)" style="fill:#d0d4d7"/><path d="M490.34,186.54a1.35,1.35,0,0,1-1,2.13l-9.22,1.8a2.86,2.86,0,0,1-2.89-1.39l-5.57-10.62a1.36,1.36,0,0,1,1-2.09l8.87-1.43a3.1,3.1,0,0,1,3,1.43Z" transform="translate(-0.75 -34.62)" style="fill:#979d9c"/><path d="M510.31,183a1.35,1.35,0,0,1-1,2.12l-9.22,1.8a2.85,2.85,0,0,1-2.89-1.39l-5.57-10.62a1.36,1.36,0,0,1,1.05-2.09l8.87-1.42a3.08,3.08,0,0,1,3,1.42Z" transform="translate(-0.75 -34.62)" style="fill:#62bc83"/><path d="M462.62,168.78a1.35,1.35,0,0,1-1,2.12l-9.22,1.8a2.84,2.84,0,0,1-2.89-1.38L444,160.7a1.35,1.35,0,0,1,1.05-2.09l8.86-1.43a3.14,3.14,0,0,1,3,1.42Z" transform="translate(-0.75 -34.62)" style="fill:#f4aca2"/><path d="M480.61,163.75a1.36,1.36,0,0,1-1,2.13l-9.23,1.8a2.87,2.87,0,0,1-2.89-1.39L462,155.67a1.36,1.36,0,0,1,1.05-2.09l8.87-1.43a3.11,3.11,0,0,1,3,1.43Z" transform="translate(-0.75 -34.62)" style="fill:#b8cfec"/><path d="M499.1,161.08a1.36,1.36,0,0,1-1,2.13L488.9,165a2.86,2.86,0,0,1-2.89-1.39L480.44,153a1.36,1.36,0,0,1,1.05-2.09l8.87-1.42a3.09,3.09,0,0,1,3,1.42Z" transform="translate(-0.75 -34.62)" style="fill:#fcda6f"/><path d="M469.34,143.5a1.35,1.35,0,0,1-1,2.12l-9.22,1.8a2.85,2.85,0,0,1-2.89-1.39l-5.57-10.62a1.36,1.36,0,0,1,1.05-2.09l8.86-1.42a3.1,3.1,0,0,1,3,1.42Z" transform="translate(-0.75 -34.62)" style="fill:#d0d4d7"/><path d="M487.82,140.83a1.35,1.35,0,0,1-1,2.12l-9.22,1.8a2.87,2.87,0,0,1-2.9-1.39l-5.56-10.62a1.36,1.36,0,0,1,1-2.09l8.87-1.42a3.08,3.08,0,0,1,3,1.42Z" transform="translate(-0.75 -34.62)" style="fill:#f4aca2"/><polyline points="511 68.38 511 366.38 452.3 331.87 452.3 43.71 511 68.38" style="fill:#5ba1c5;opacity:0.68"/><g style="opacity:0.68"><path d="M495.29,174.44c-5.47-9.58-15.34-11.88-22.05-5.12s-7.72,20-2.25,29.57,15.33,11.87,22,5.12S500.75,184,495.29,174.44Zm-17.62,17.72c-2.46-4.31-2-10.27,1-13.3s7.46-2,9.92,2.3,2,10.27-1,13.31S480.13,196.47,477.67,192.16Z" transform="translate(-0.75 -34.62)" style="fill:#5092ad"/><path d="M492.77,183.8a.08.08,0,0,1-.12,0l-4.85-8.5a.14.14,0,0,1,0-.16l8-8a.07.07,0,0,1,.12,0l4.85,8.5a.18.18,0,0,1,0,.16Z" transform="translate(-0.75 -34.62)" style="fill:#5092ad"/><path d="M488,175.27a.08.08,0,0,1-.1.08l-7.6-1.77a.11.11,0,0,1-.09-.12l1-13.74a.09.09,0,0,1,.11-.08l7.6,1.77a.12.12,0,0,1,.09.12Z" transform="translate(-0.75 -34.62)" style="fill:#5092ad"/><path d="M480.35,173.4a.14.14,0,0,1,0,.16l-5.93,6a.07.07,0,0,1-.12,0l-6.5-11.39a.14.14,0,0,1,0-.16l5.93-6a.07.07,0,0,1,.12,0Z" transform="translate(-0.75 -34.62)" style="fill:#5092ad"/><path d="M474.35,179.3a.13.13,0,0,1,.09.12l-.79,10.26a.07.07,0,0,1-.1.07l-10.2-2.36a.14.14,0,0,1-.09-.13L464,177a.09.09,0,0,1,.11-.08Z" transform="translate(-0.75 -34.62)" style="fill:#5092ad"/><path d="M473.51,189.53a.08.08,0,0,1,.12,0l4.85,8.5a.16.16,0,0,1,0,.16l-7.95,8a.07.07,0,0,1-.12,0l-4.85-8.5a.12.12,0,0,1,0-.15Z" transform="translate(-0.75 -34.62)" style="fill:#5092ad"/><path d="M478.3,198.05a.08.08,0,0,1,.11-.07l7.6,1.76a.13.13,0,0,1,.09.12l-1.05,13.74a.08.08,0,0,1-.1.08l-7.6-1.76a.12.12,0,0,1-.09-.13Z" transform="translate(-0.75 -34.62)" style="fill:#5092ad"/><path d="M485.92,199.92a.12.12,0,0,1,0-.15l5.94-6a.08.08,0,0,1,.12,0l6.49,11.39a.14.14,0,0,1,0,.16l-5.93,6a.07.07,0,0,1-.12,0Z" transform="translate(-0.75 -34.62)" style="fill:#5092ad"/><path d="M491.93,194a.11.11,0,0,1-.09-.12l.78-10.25c0-.06.05-.09.11-.08l10.19,2.37a.1.1,0,0,1,.09.12l-.78,10.26a.08.08,0,0,1-.1.07Z" transform="translate(-0.75 -34.62)" style="fill:#5092ad"/></g><path d="M492.75,175.78c-5.47-9.58-15.34-11.87-22.05-5.12s-7.72,20-2.25,29.57,15.33,11.88,22,5.12S498.21,185.36,492.75,175.78Zm-17.62,17.73c-2.46-4.31-2-10.27,1-13.31s7.46-2,9.92,2.31,2,10.27-1,13.3S477.59,197.82,475.13,193.51Z" transform="translate(-0.75 -34.62)" style="fill:#f2f9fe"/><path d="M490.23,185.14a.07.07,0,0,1-.12,0l-4.85-8.5a.14.14,0,0,1,0-.16l8-8a.07.07,0,0,1,.12,0l4.85,8.5a.16.16,0,0,1,0,.15Z" transform="translate(-0.75 -34.62)" style="fill:#f2f9fe"/><path d="M485.43,176.62a.07.07,0,0,1-.1.07l-7.6-1.76a.11.11,0,0,1-.09-.12l1-13.74a.09.09,0,0,1,.11-.08l7.6,1.76a.14.14,0,0,1,.09.13Z" transform="translate(-0.75 -34.62)" style="fill:#f2f9fe"/><path d="M477.81,174.75a.12.12,0,0,1,0,.15l-5.93,6a.08.08,0,0,1-.12,0l-6.5-11.39a.14.14,0,0,1,0-.16l5.93-6a.07.07,0,0,1,.12,0Z" transform="translate(-0.75 -34.62)" style="fill:#f2f9fe"/><path d="M471.81,180.65a.12.12,0,0,1,.09.12L471.11,191a.08.08,0,0,1-.1.08l-10.2-2.37a.12.12,0,0,1-.09-.12l.78-10.25a.09.09,0,0,1,.11-.08Z" transform="translate(-0.75 -34.62)" style="fill:#f2f9fe"/><path d="M471,190.87a.08.08,0,0,1,.12,0l4.84,8.5a.14.14,0,0,1,0,.16l-8,8a.07.07,0,0,1-.12,0L463,199a.14.14,0,0,1,0-.16Z" transform="translate(-0.75 -34.62)" style="fill:#f2f9fe"/><path d="M475.76,199.4a.09.09,0,0,1,.11-.08l7.6,1.77a.13.13,0,0,1,.09.12L482.51,215a.08.08,0,0,1-.1.08l-7.6-1.77a.1.1,0,0,1-.09-.12Z" transform="translate(-0.75 -34.62)" style="fill:#f2f9fe"/><path d="M483.38,201.27a.14.14,0,0,1,0-.16l5.94-6a.07.07,0,0,1,.12,0L496,206.55a.14.14,0,0,1,0,.16l-5.93,6a.07.07,0,0,1-.12,0Z" transform="translate(-0.75 -34.62)" style="fill:#f2f9fe"/><path d="M489.39,195.37a.12.12,0,0,1-.09-.12l.78-10.26a.08.08,0,0,1,.11-.07l10.19,2.36a.12.12,0,0,1,.09.13l-.78,10.25a.08.08,0,0,1-.1.08Z" transform="translate(-0.75 -34.62)" style="fill:#f2f9fe"/><g style="opacity:0.68"><line x1="525.41" y1="56.14" x2="536.58" y2="60.76" style="fill:none;stroke:#5ba1c5;stroke-linecap:round;stroke-linejoin:round;stroke-width:2px;opacity:0.68"/><line x1="524.86" y1="60.1" x2="536.03" y2="64.72" style="fill:none;stroke:#5ba1c5;stroke-linecap:round;stroke-linejoin:round;stroke-width:2px;opacity:0.68"/><line x1="524.45" y1="63.93" x2="535.62" y2="68.55" style="fill:none;stroke:#5ba1c5;stroke-linecap:round;stroke-linejoin:round;stroke-width:2px;opacity:0.68"/></g></svg>